<svg width="45" height="44" viewBox="0 0 45 44" fill="none" xmlns="http://www.w3.org/2000/svg">
<path d="M31.5 2H16.5C15.9696 2 15.4609 2.21071 15.0858 2.58579C14.7107 2.96086 14.5 3.46957 14.5 4V7H12.5V9H14.5V11H12.5V13H14.5V15H12.5V17H14.5V20C14.5 20.5304 14.7107 21.0391 15.0858 21.4142C15.4609 21.7893 15.9696 22 16.5 22H31.5C31.7652 22 32.0196 21.8946 32.2071 21.7071C32.3946 21.5196 32.5 21.2652 32.5 21V3C32.5 2.73478 32.3946 2.48043 32.2071 2.29289C32.0196 2.10536 31.7652 2 31.5 2ZM23.5 4.999C25.148 4.999 26.5 6.35 26.5 7.999C26.4971 8.79385 26.1801 9.55533 25.6182 10.1175C25.0562 10.6796 24.2948 10.9968 23.5 11C21.853 11 20.5 9.647 20.5 7.999C20.5 6.35 21.853 4.999 23.5 4.999ZM29.5 18H17.5V17.25C17.5 15.031 20.205 12.75 23.5 12.75C26.795 12.75 29.5 15.031 29.5 17.25V18Z" fill="#F2F7FC"/>
<path d="M0.421875 33.6796C0.421875 33.1596 0.513875 32.6516 0.697875 32.1556C0.881875 31.6516 1.14988 31.1956 1.50188 30.7876C1.86188 30.3716 2.29787 30.0436 2.80988 29.8036C3.32188 29.5556 3.90187 29.4316 4.54987 29.4316C5.31787 29.4316 5.98187 29.6076 6.54187 29.9596C7.10187 30.3036 7.51788 30.7476 7.78988 31.2916L6.73387 31.9996C6.57387 31.6556 6.36987 31.3836 6.12187 31.1836C5.88187 30.9836 5.61787 30.8436 5.32987 30.7636C5.04987 30.6836 4.77387 30.6436 4.50187 30.6436C4.05387 30.6436 3.66187 30.7356 3.32587 30.9196C2.98987 31.0956 2.70587 31.3316 2.47387 31.6276C2.24987 31.9236 2.07788 32.2556 1.95788 32.6236C1.84588 32.9916 1.78988 33.3596 1.78988 33.7276C1.78988 34.1356 1.85788 34.5316 1.99388 34.9156C2.12988 35.2916 2.31787 35.6276 2.55787 35.9236C2.80587 36.2116 3.09787 36.4396 3.43387 36.6076C3.76987 36.7756 4.13787 36.8596 4.53787 36.8596C4.80987 36.8596 5.09387 36.8116 5.38987 36.7156C5.68587 36.6196 5.95787 36.4716 6.20587 36.2716C6.46187 36.0636 6.66187 35.7916 6.80587 35.4556L7.92188 36.0916C7.74588 36.5156 7.46987 36.8756 7.09387 37.1716C6.72587 37.4676 6.30987 37.6916 5.84587 37.8436C5.38987 37.9956 4.93787 38.0716 4.48987 38.0716C3.88987 38.0716 3.34188 37.9476 2.84588 37.6996C2.34988 37.4436 1.92188 37.1076 1.56187 36.6916C1.20187 36.2676 0.921875 35.7956 0.721875 35.2756C0.521875 34.7476 0.421875 34.2156 0.421875 33.6796ZM11.8053 38.1196C11.3093 38.1196 10.8653 38.0356 10.4733 37.8676C10.0813 37.6916 9.74129 37.4516 9.45329 37.1476C9.17329 36.8436 8.95728 36.4996 8.80528 36.1156C8.65328 35.7236 8.57728 35.3076 8.57728 34.8676C8.57728 34.4276 8.65328 34.0116 8.80528 33.6196C8.95728 33.2276 9.17329 32.8836 9.45329 32.5876C9.74129 32.2836 10.0813 32.0476 10.4733 31.8796C10.8733 31.7036 11.3173 31.6156 11.8053 31.6156C12.2933 31.6156 12.7333 31.7036 13.1253 31.8796C13.5253 32.0476 13.8653 32.2836 14.1453 32.5876C14.4333 32.8836 14.6533 33.2276 14.8053 33.6196C14.9573 34.0116 15.0333 34.4276 15.0333 34.8676C15.0333 35.3076 14.9573 35.7236 14.8053 36.1156C14.6533 36.4996 14.4333 36.8436 14.1453 37.1476C13.8653 37.4516 13.5253 37.6916 13.1253 37.8676C12.7333 38.0356 12.2933 38.1196 11.8053 38.1196ZM9.93328 34.8796C9.93328 35.2796 10.0173 35.6396 10.1853 35.9596C10.3533 36.2796 10.5773 36.5316 10.8573 36.7156C11.1373 36.8996 11.4533 36.9916 11.8053 36.9916C12.1493 36.9916 12.4613 36.8996 12.7413 36.7156C13.0293 36.5236 13.2573 36.2676 13.4253 35.9476C13.5933 35.6196 13.6773 35.2596 13.6773 34.8676C13.6773 34.4676 13.5933 34.1076 13.4253 33.7876C13.2573 33.4676 13.0293 33.2156 12.7413 33.0316C12.4613 32.8396 12.1493 32.7436 11.8053 32.7436C11.4533 32.7436 11.1373 32.8396 10.8573 33.0316C10.5773 33.2236 10.3533 33.4796 10.1853 33.7996C10.0173 34.1116 9.93328 34.4716 9.93328 34.8796ZM21.8321 37.9996H20.5121V34.4836C20.5121 33.8996 20.4161 33.4716 20.2241 33.1996C20.0401 32.9276 19.7641 32.7916 19.3961 32.7916C19.1401 32.7916 18.8841 32.8556 18.6281 32.9836C18.3801 33.1116 18.1561 33.2876 17.9561 33.5116C17.7561 33.7276 17.6121 33.9796 17.5241 34.2676V37.9996H16.2041V31.7236H17.4041V32.9836C17.5641 32.7036 17.7721 32.4636 18.0281 32.2636C18.2921 32.0556 18.5881 31.8956 18.9161 31.7836C19.2441 31.6716 19.5921 31.6156 19.9601 31.6156C20.3361 31.6156 20.6441 31.6836 20.8841 31.8196C21.1321 31.9556 21.3241 32.1436 21.4601 32.3836C21.6041 32.6156 21.7001 32.8876 21.7481 33.1996C21.8041 33.5036 21.8321 33.8276 21.8321 34.1716V37.9996ZM26.8093 37.6756C26.6973 37.7316 26.5573 37.7916 26.3893 37.8556C26.2213 37.9196 26.0293 37.9756 25.8133 38.0236C25.6053 38.0716 25.3893 38.0956 25.1653 38.0956C24.8933 38.0956 24.6413 38.0476 24.4093 37.9516C24.1773 37.8556 23.9893 37.7036 23.8453 37.4956C23.7093 37.2796 23.6413 37.0036 23.6413 36.6676V32.7436H22.8133V31.7236H23.6413V29.6596H24.9613V31.7236H26.3293V32.7436H24.9613V36.2476C24.9773 36.4636 25.0453 36.6236 25.1653 36.7276C25.2933 36.8316 25.4493 36.8836 25.6333 36.8836C25.8173 36.8836 25.9933 36.8516 26.1613 36.7876C26.3293 36.7236 26.4533 36.6716 26.5333 36.6316L26.8093 37.6756ZM27.2676 36.1636C27.2676 35.7636 27.3796 35.4156 27.6036 35.1196C27.8356 34.8156 28.1516 34.5836 28.5516 34.4236C28.9516 34.2556 29.4156 34.1716 29.9436 34.1716C30.2236 34.1716 30.5076 34.1916 30.7956 34.2316C31.0916 34.2716 31.3516 34.3356 31.5756 34.4236V34.0276C31.5756 33.5876 31.4436 33.2436 31.1796 32.9956C30.9156 32.7476 30.5356 32.6236 30.0396 32.6236C29.6876 32.6236 29.3556 32.6876 29.0436 32.8156C28.7316 32.9356 28.3996 33.1076 28.0476 33.3316L27.6036 32.4436C28.0196 32.1636 28.4356 31.9556 28.8516 31.8196C29.2756 31.6836 29.7196 31.6156 30.1836 31.6156C31.0236 31.6156 31.6836 31.8396 32.1636 32.2876C32.6516 32.7276 32.8956 33.3556 32.8956 34.1716V36.5116C32.8956 36.6636 32.9196 36.7716 32.9676 36.8356C33.0236 36.8996 33.1156 36.9356 33.2436 36.9436V37.9996C33.1236 38.0236 33.0156 38.0396 32.9196 38.0476C32.8236 38.0556 32.7436 38.0596 32.6796 38.0596C32.3996 38.0596 32.1876 37.9916 32.0436 37.8556C31.8996 37.7196 31.8156 37.5596 31.7916 37.3756L31.7556 37.0156C31.4836 37.3676 31.1356 37.6396 30.7116 37.8316C30.2876 38.0236 29.8596 38.1196 29.4276 38.1196C29.0116 38.1196 28.6396 38.0356 28.3116 37.8676C27.9836 37.6916 27.7276 37.4556 27.5436 37.1596C27.3596 36.8636 27.2676 36.5316 27.2676 36.1636ZM31.2636 36.5476C31.3596 36.4436 31.4356 36.3396 31.4916 36.2356C31.5476 36.1316 31.5756 36.0396 31.5756 35.9596V35.2396C31.3516 35.1516 31.1156 35.0876 30.8676 35.0476C30.6196 34.9996 30.3756 34.9756 30.1356 34.9756C29.6556 34.9756 29.2636 35.0716 28.9596 35.2636C28.6636 35.4556 28.5156 35.7196 28.5156 36.0556C28.5156 36.2396 28.5636 36.4156 28.6596 36.5836C28.7636 36.7516 28.9076 36.8876 29.0916 36.9916C29.2836 37.0956 29.5196 37.1476 29.7996 37.1476C30.0876 37.1476 30.3636 37.0916 30.6276 36.9796C30.8916 36.8676 31.1036 36.7236 31.2636 36.5476ZM37.341 38.1196C36.853 38.1196 36.409 38.0356 36.009 37.8676C35.617 37.6916 35.277 37.4516 34.989 37.1476C34.701 36.8436 34.477 36.4956 34.317 36.1036C34.165 35.7116 34.089 35.2956 34.089 34.8556C34.089 34.2636 34.221 33.7236 34.485 33.2356C34.757 32.7476 35.133 32.3556 35.613 32.0596C36.101 31.7636 36.677 31.6156 37.341 31.6156C37.981 31.6156 38.537 31.7596 39.009 32.0476C39.489 32.3276 39.841 32.7036 40.065 33.1756L38.781 33.5836C38.637 33.3196 38.433 33.1156 38.169 32.9716C37.913 32.8196 37.629 32.7436 37.317 32.7436C36.965 32.7436 36.645 32.8356 36.357 33.0196C36.077 33.1956 35.853 33.4436 35.685 33.7636C35.525 34.0756 35.445 34.4396 35.445 34.8556C35.445 35.2556 35.529 35.6196 35.697 35.9476C35.865 36.2676 36.089 36.5236 36.369 36.7156C36.657 36.8996 36.977 36.9916 37.329 36.9916C37.545 36.9916 37.753 36.9556 37.953 36.8836C38.161 36.8036 38.341 36.6996 38.493 36.5716C38.645 36.4356 38.753 36.2876 38.817 36.1276L40.113 36.5116C39.977 36.8236 39.773 37.0996 39.501 37.3396C39.237 37.5796 38.921 37.7716 38.553 37.9156C38.193 38.0516 37.789 38.1196 37.341 38.1196ZM44.6922 37.6756C44.5802 37.7316 44.4402 37.7916 44.2722 37.8556C44.1042 37.9196 43.9122 37.9756 43.6962 38.0236C43.4882 38.0716 43.2722 38.0956 43.0482 38.0956C42.7762 38.0956 42.5242 38.0476 42.2922 37.9516C42.0602 37.8556 41.8722 37.7036 41.7282 37.4956C41.5922 37.2796 41.5242 37.0036 41.5242 36.6676V32.7436H40.6962V31.7236H41.5242V29.6596H42.8442V31.7236H44.2122V32.7436H42.8442V36.2476C42.8602 36.4636 42.9282 36.6236 43.0482 36.7276C43.1762 36.8316 43.3322 36.8836 43.5162 36.8836C43.7002 36.8836 43.8762 36.8516 44.0442 36.7876C44.2122 36.7236 44.3362 36.6716 44.4162 36.6316L44.6922 37.6756Z" fill="#F2F7FC"/>
</svg>
