<svg width="50" height="32" viewBox="0 0 50 32" fill="none" xmlns="http://www.w3.org/2000/svg">
<g clip-path="url(#clip0_261_48)">
<path d="M42 0H8C3.58172 0 0 3.58172 0 8V24C0 28.4183 3.58172 32 8 32H42C46.4183 32 50 28.4183 50 24V8C50 3.58172 46.4183 0 42 0Z" fill="#E1E8EF"/>
<path d="M8.50391 15.6799C8.50391 15.1599 8.59191 14.6519 8.76791 14.1559C8.95191 13.6519 9.21591 13.1959 9.55991 12.7879C9.90391 12.3719 10.3279 12.0439 10.8319 11.8039C11.3359 11.5559 11.9079 11.4319 12.5479 11.4319C13.3079 11.4319 13.9559 11.6079 14.4919 11.9599C15.0359 12.3039 15.4359 12.7479 15.6919 13.2919L15.0319 13.6999C14.8479 13.3239 14.6159 13.0279 14.3359 12.8119C14.0559 12.5879 13.7559 12.4279 13.4359 12.3319C13.1239 12.2359 12.8119 12.1879 12.4999 12.1879C11.9879 12.1879 11.5359 12.2919 11.1439 12.4999C10.7519 12.6999 10.4199 12.9719 10.1479 13.3159C9.88391 13.6519 9.68391 14.0319 9.54791 14.4559C9.41191 14.8719 9.34391 15.2959 9.34391 15.7279C9.34391 16.1999 9.42391 16.6519 9.58391 17.0839C9.74391 17.5159 9.96791 17.8999 10.2559 18.2359C10.5439 18.5639 10.8799 18.8279 11.2639 19.0279C11.6559 19.2199 12.0799 19.3159 12.5359 19.3159C12.8559 19.3159 13.1839 19.2599 13.5199 19.1479C13.8559 19.0359 14.1679 18.8639 14.4559 18.6319C14.7519 18.3999 14.9879 18.0999 15.1639 17.7319L15.8599 18.0919C15.6839 18.5159 15.4119 18.8759 15.0439 19.1719C14.6759 19.4679 14.2639 19.6919 13.8079 19.8439C13.3599 19.9959 12.9199 20.0719 12.4879 20.0719C11.9039 20.0719 11.3679 19.9479 10.8799 19.6999C10.3919 19.4439 9.96791 19.1079 9.60791 18.6919C9.25591 18.2679 8.98391 17.7959 8.79191 17.2759C8.59991 16.7479 8.50391 16.2159 8.50391 15.6799ZM22.5145 13.0759C22.3945 12.9399 22.2545 12.8199 22.0945 12.7159C21.9345 12.6039 21.7545 12.5079 21.5545 12.4279C21.3545 12.3479 21.1385 12.2839 20.9065 12.2359C20.6825 12.1879 20.4425 12.1639 20.1865 12.1639C19.4425 12.1639 18.8945 12.3079 18.5425 12.5959C18.1985 12.8759 18.0265 13.2599 18.0265 13.7479C18.0265 14.0839 18.1065 14.3479 18.2665 14.5399C18.4345 14.7319 18.6945 14.8879 19.0465 15.0079C19.3985 15.1279 19.8465 15.2519 20.3905 15.3799C20.9985 15.5079 21.5225 15.6599 21.9625 15.8359C22.4025 16.0119 22.7425 16.2519 22.9825 16.5559C23.2225 16.8519 23.3425 17.2559 23.3425 17.7679C23.3425 18.1599 23.2665 18.4999 23.1145 18.7879C22.9625 19.0759 22.7505 19.3159 22.4785 19.5079C22.2065 19.6999 21.8825 19.8439 21.5065 19.9399C21.1305 20.0279 20.7185 20.0719 20.2705 20.0719C19.8305 20.0719 19.4065 20.0279 18.9985 19.9399C18.5985 19.8439 18.2185 19.7079 17.8585 19.5319C17.4985 19.3479 17.1625 19.1159 16.8505 18.8359L17.2705 18.1519C17.4225 18.3119 17.6025 18.4639 17.8105 18.6079C18.0265 18.7439 18.2625 18.8679 18.5185 18.9799C18.7825 19.0919 19.0625 19.1799 19.3585 19.2439C19.6625 19.2999 19.9745 19.3279 20.2945 19.3279C20.9745 19.3279 21.5025 19.2039 21.8785 18.9559C22.2625 18.7079 22.4545 18.3399 22.4545 17.8519C22.4545 17.4999 22.3585 17.2199 22.1665 17.0119C21.9745 16.7959 21.6865 16.6199 21.3025 16.4839C20.9185 16.3479 20.4465 16.2159 19.8865 16.0879C19.2945 15.9519 18.7945 15.7999 18.3865 15.6319C17.9785 15.4639 17.6705 15.2439 17.4625 14.9719C17.2625 14.6919 17.1625 14.3239 17.1625 13.8679C17.1625 13.3399 17.2905 12.8959 17.5465 12.5359C17.8105 12.1679 18.1705 11.8919 18.6265 11.7079C19.0825 11.5159 19.6065 11.4199 20.1985 11.4199C20.5745 11.4199 20.9225 11.4599 21.2425 11.5399C21.5705 11.6119 21.8705 11.7199 22.1425 11.8639C22.4225 12.0079 22.6825 12.1879 22.9225 12.4039L22.5145 13.0759ZM30.0435 13.0759C29.9235 12.9399 29.7835 12.8199 29.6235 12.7159C29.4635 12.6039 29.2835 12.5079 29.0835 12.4279C28.8835 12.3479 28.6675 12.2839 28.4355 12.2359C28.2115 12.1879 27.9715 12.1639 27.7155 12.1639C26.9715 12.1639 26.4235 12.3079 26.0715 12.5959C25.7275 12.8759 25.5555 13.2599 25.5555 13.7479C25.5555 14.0839 25.6355 14.3479 25.7955 14.5399C25.9635 14.7319 26.2235 14.8879 26.5755 15.0079C26.9275 15.1279 27.3755 15.2519 27.9195 15.3799C28.5275 15.5079 29.0515 15.6599 29.4915 15.8359C29.9315 16.0119 30.2715 16.2519 30.5115 16.5559C30.7515 16.8519 30.8715 17.2559 30.8715 17.7679C30.8715 18.1599 30.7955 18.4999 30.6435 18.7879C30.4915 19.0759 30.2795 19.3159 30.0075 19.5079C29.7355 19.6999 29.4115 19.8439 29.0355 19.9399C28.6595 20.0279 28.2475 20.0719 27.7995 20.0719C27.3595 20.0719 26.9355 20.0279 26.5275 19.9399C26.1275 19.8439 25.7475 19.7079 25.3875 19.5319C25.0275 19.3479 24.6915 19.1159 24.3795 18.8359L24.7995 18.1519C24.9515 18.3119 25.1315 18.4639 25.3395 18.6079C25.5555 18.7439 25.7915 18.8679 26.0475 18.9799C26.3115 19.0919 26.5915 19.1799 26.8875 19.2439C27.1915 19.2999 27.5035 19.3279 27.8235 19.3279C28.5035 19.3279 29.0315 19.2039 29.4075 18.9559C29.7915 18.7079 29.9835 18.3399 29.9835 17.8519C29.9835 17.4999 29.8875 17.2199 29.6955 17.0119C29.5035 16.7959 29.2155 16.6199 28.8315 16.4839C28.4475 16.3479 27.9755 16.2159 27.4155 16.0879C26.8235 15.9519 26.3235 15.7999 25.9155 15.6319C25.5075 15.4639 25.1995 15.2439 24.9915 14.9719C24.7915 14.6919 24.6915 14.3239 24.6915 13.8679C24.6915 13.3399 24.8195 12.8959 25.0755 12.5359C25.3395 12.1679 25.6995 11.8919 26.1555 11.7079C26.6115 11.5159 27.1355 11.4199 27.7275 11.4199C28.1035 11.4199 28.4515 11.4599 28.7715 11.5399C29.0995 11.6119 29.3995 11.7199 29.6715 11.8639C29.9515 12.0079 30.2115 12.1879 30.4515 12.4039L30.0435 13.0759ZM38.9392 17.1679C39.2992 17.2239 39.6072 17.3519 39.8632 17.5519C40.1192 17.7519 40.3192 18.0039 40.4632 18.3079C40.6072 18.6119 40.6792 18.9559 40.6792 19.3399C40.6792 19.8199 40.5632 20.2439 40.3312 20.6119C40.0992 20.9799 39.7752 21.2639 39.3592 21.4639C38.9432 21.6639 38.4592 21.7639 37.9072 21.7639C37.2992 21.7639 36.7672 21.6399 36.3112 21.3919C35.8552 21.1519 35.5112 20.8159 35.2792 20.3839L35.8432 19.8679C36.0192 20.2119 36.2792 20.4879 36.6232 20.6959C36.9672 20.9119 37.3952 21.0199 37.9072 21.0199C38.4992 21.0199 38.9672 20.8719 39.3112 20.5759C39.6632 20.2879 39.8392 19.8719 39.8392 19.3279C39.8392 18.7839 39.6552 18.3519 39.2872 18.0319C38.9272 17.7039 38.4112 17.5399 37.7392 17.5399H37.4392V16.8439H37.7632C38.3792 16.8439 38.8512 16.6999 39.1792 16.4119C39.5072 16.1239 39.6712 15.7559 39.6712 15.3079C39.6712 14.9799 39.5952 14.7079 39.4432 14.4919C39.2912 14.2759 39.0832 14.1119 38.8192 13.9999C38.5632 13.8879 38.2672 13.8319 37.9312 13.8319C37.4752 13.8319 37.0712 13.9359 36.7192 14.1439C36.3752 14.3439 36.1152 14.6239 35.9392 14.9839L35.4112 14.4799C35.5472 14.1999 35.7432 13.9559 35.9992 13.7479C36.2552 13.5399 36.5552 13.3799 36.8992 13.2679C37.2432 13.1479 37.6112 13.0879 38.0032 13.0879C38.4992 13.0879 38.9352 13.1799 39.3112 13.3639C39.6872 13.5399 39.9832 13.7879 40.1992 14.1079C40.4152 14.4279 40.5232 14.8039 40.5232 15.2359C40.5232 15.5559 40.4592 15.8519 40.3312 16.1239C40.2032 16.3959 40.0192 16.6239 39.7792 16.8079C39.5472 16.9919 39.2672 17.1119 38.9392 17.1679Z" fill="black"/>
</g>
<defs>
<clipPath id="clip0_261_48">
<rect width="50" height="32" fill="white"/>
</clipPath>
</defs>
</svg>
