<svg width="52" height="32" viewBox="0 0 52 32" fill="none" xmlns="http://www.w3.org/2000/svg">
<g clip-path="url(#clip0_261_52)">
<path d="M44 0H8C3.58172 0 0 3.58172 0 8V24C0 28.4183 3.58172 32 8 32H44C48.4183 32 52 28.4183 52 24V8C52 3.58172 48.4183 0 44 0Z" fill="#E1E8EF"/>
<path d="M9.06641 20.0002V11.4802H14.6584V12.2242H9.90641V15.3562H13.9144V16.0522H9.90641V20.0002H9.06641ZM16.2048 20.0002V13.7482H17.0208V20.0002H16.2048ZM16.2048 12.4402V11.2402H17.0208V12.4402H16.2048ZM21.5661 20.0842C21.1421 20.0842 20.7501 19.9962 20.3901 19.8202C20.0301 19.6442 19.7181 19.4082 19.4541 19.1122C19.1981 18.8082 18.9981 18.4642 18.8541 18.0802C18.7101 17.6962 18.6381 17.3002 18.6381 16.8922C18.6381 16.4522 18.7061 16.0402 18.8421 15.6562C18.9861 15.2642 19.1861 14.9162 19.4421 14.6122C19.7061 14.3082 20.0141 14.0722 20.3661 13.9042C20.7181 13.7282 21.1101 13.6402 21.5421 13.6402C22.0781 13.6402 22.5421 13.7762 22.9341 14.0482C23.3341 14.3202 23.6701 14.6562 23.9421 15.0562V13.7482H24.6741V20.0242C24.6741 20.6002 24.5341 21.0842 24.2541 21.4762C23.9821 21.8762 23.6101 22.1762 23.1381 22.3762C22.6741 22.5762 22.1661 22.6762 21.6141 22.6762C20.9021 22.6762 20.3261 22.5482 19.8861 22.2922C19.4461 22.0362 19.0861 21.6922 18.8061 21.2602L19.3101 20.8642C19.5581 21.2562 19.8861 21.5482 20.2941 21.7402C20.7101 21.9322 21.1501 22.0282 21.6141 22.0282C22.0221 22.0282 22.3941 21.9522 22.7301 21.8002C23.0741 21.6562 23.3461 21.4362 23.5461 21.1402C23.7541 20.8442 23.8581 20.4722 23.8581 20.0242V18.7882C23.6181 19.1802 23.2901 19.4962 22.8741 19.7362C22.4581 19.9682 22.0221 20.0842 21.5661 20.0842ZM21.7941 19.4002C22.0421 19.4002 22.2781 19.3562 22.5021 19.2682C22.7341 19.1802 22.9461 19.0642 23.1381 18.9202C23.3301 18.7682 23.4901 18.6002 23.6181 18.4162C23.7461 18.2322 23.8261 18.0442 23.8581 17.8522V15.9202C23.7381 15.6162 23.5661 15.3482 23.3421 15.1162C23.1181 14.8762 22.8621 14.6922 22.5741 14.5642C22.2941 14.4282 22.0021 14.3602 21.6981 14.3602C21.3461 14.3602 21.0301 14.4362 20.7501 14.5882C20.4781 14.7322 20.2461 14.9282 20.0541 15.1762C19.8701 15.4162 19.7261 15.6882 19.6221 15.9922C19.5181 16.2962 19.4661 16.6002 19.4661 16.9042C19.4661 17.2402 19.5261 17.5602 19.6461 17.8642C19.7661 18.1602 19.9301 18.4282 20.1381 18.6682C20.3541 18.9002 20.6021 19.0802 20.8821 19.2082C21.1701 19.3362 21.4741 19.4002 21.7941 19.4002ZM36.0161 20.0002H35.2001V16.5082C35.2001 15.7802 35.0841 15.2442 34.8521 14.9002C34.6201 14.5562 34.2761 14.3842 33.8201 14.3842C33.3481 14.3842 32.9241 14.5522 32.5481 14.8882C32.1801 15.2242 31.9201 15.6562 31.7681 16.1842V20.0002H30.9521V16.5082C30.9521 15.7722 30.8401 15.2362 30.6161 14.9002C30.3921 14.5562 30.0481 14.3842 29.5841 14.3842C29.1201 14.3842 28.7001 14.5482 28.3241 14.8762C27.9481 15.2042 27.6841 15.6362 27.5321 16.1722V20.0002H26.7161V13.7482H27.4601V15.1642C27.7241 14.6762 28.0601 14.3002 28.4681 14.0362C28.8841 13.7722 29.3441 13.6402 29.8481 13.6402C30.3681 13.6402 30.7881 13.7882 31.1081 14.0842C31.4281 14.3802 31.6241 14.7682 31.6961 15.2482C31.9841 14.7202 32.3281 14.3202 32.7281 14.0482C33.1361 13.7762 33.5961 13.6402 34.1081 13.6402C34.4601 13.6402 34.7561 13.7042 34.9961 13.8322C35.2441 13.9602 35.4401 14.1442 35.5841 14.3842C35.7361 14.6162 35.8441 14.9002 35.9081 15.2362C35.9801 15.5642 36.0161 15.9322 36.0161 16.3402V20.0002ZM37.4794 18.2002C37.4794 17.8082 37.5914 17.4722 37.8154 17.1922C38.0394 16.9042 38.3474 16.6842 38.7394 16.5322C39.1394 16.3722 39.5994 16.2922 40.1194 16.2922C40.4234 16.2922 40.7394 16.3162 41.0674 16.3642C41.3954 16.4122 41.6874 16.4842 41.9434 16.5802V16.0522C41.9434 15.5242 41.7874 15.1042 41.4754 14.7922C41.1634 14.4802 40.7314 14.3242 40.1794 14.3242C39.8434 14.3242 39.5114 14.3882 39.1834 14.5162C38.8634 14.6362 38.5274 14.8162 38.1754 15.0562L37.8634 14.4802C38.2714 14.2002 38.6714 13.9922 39.0634 13.8562C39.4554 13.7122 39.8554 13.6402 40.2634 13.6402C41.0314 13.6402 41.6394 13.8602 42.0874 14.3002C42.5354 14.7402 42.7594 15.3482 42.7594 16.1242V19.0162C42.7594 19.1282 42.7834 19.2122 42.8314 19.2682C42.8794 19.3162 42.9554 19.3442 43.0594 19.3522V20.0002C42.9714 20.0082 42.8954 20.0162 42.8314 20.0242C42.7674 20.0322 42.7194 20.0322 42.6874 20.0242C42.4874 20.0162 42.3354 19.9522 42.2314 19.8322C42.1274 19.7122 42.0714 19.5842 42.0634 19.4482L42.0514 18.9922C41.7714 19.3522 41.4074 19.6322 40.9594 19.8322C40.5114 20.0242 40.0554 20.1202 39.5914 20.1202C39.1914 20.1202 38.8274 20.0362 38.4994 19.8682C38.1794 19.6922 37.9274 19.4602 37.7434 19.1722C37.5674 18.8762 37.4794 18.5522 37.4794 18.2002ZM41.6674 18.6802C41.7554 18.5682 41.8234 18.4602 41.8714 18.3562C41.9194 18.2522 41.9434 18.1602 41.9434 18.0802V17.1682C41.6714 17.0642 41.3874 16.9842 41.0914 16.9282C40.8034 16.8722 40.5114 16.8442 40.2154 16.8442C39.6314 16.8442 39.1594 16.9602 38.7994 17.1922C38.4394 17.4242 38.2594 17.7402 38.2594 18.1402C38.2594 18.3722 38.3194 18.5922 38.4394 18.8002C38.5594 19.0002 38.7354 19.1682 38.9674 19.3042C39.1994 19.4322 39.4714 19.4962 39.7834 19.4962C40.1754 19.4962 40.5394 19.4202 40.8754 19.2682C41.2194 19.1162 41.4834 18.9202 41.6674 18.6802Z" fill="black"/>
</g>
<defs>
<clipPath id="clip0_261_52">
<rect width="52" height="32" fill="white"/>
</clipPath>
</defs>
</svg>
