<svg width="71" height="32" viewBox="0 0 71 32" fill="none" xmlns="http://www.w3.org/2000/svg">
<g clip-path="url(#clip0_264_72)">
<path d="M63 0H8C3.58172 0 0 3.58172 0 8V24C0 28.4183 3.58172 32 8 32H63C67.4183 32 71 28.4183 71 24V8C71 3.58172 67.4183 0 63 0Z" fill="#E1E8EF"/>
<path d="M9.06641 20.0002V11.4802H14.6584V12.2242H9.90641V15.3562H13.9144V16.0522H9.90641V20.0002H9.06641ZM16.2408 11.2402H17.0568V18.5842C17.0568 18.8962 17.1128 19.1002 17.2248 19.1962C17.3368 19.2922 17.4728 19.3402 17.6328 19.3402C17.7768 19.3402 17.9208 19.3242 18.0648 19.2922C18.2088 19.2602 18.3328 19.2282 18.4368 19.1962L18.5808 19.8562C18.4288 19.9202 18.2408 19.9722 18.0168 20.0122C17.8008 20.0522 17.6128 20.0722 17.4528 20.0722C17.0848 20.0722 16.7888 19.9642 16.5648 19.7482C16.3488 19.5322 16.2408 19.2362 16.2408 18.8602V11.2402ZM22.4143 20.1202C21.9663 20.1202 21.5503 20.0362 21.1663 19.8682C20.7823 19.6922 20.4503 19.4562 20.1703 19.1602C19.8903 18.8562 19.6703 18.5082 19.5103 18.1162C19.3583 17.7242 19.2823 17.3042 19.2823 16.8562C19.2823 16.2722 19.4143 15.7362 19.6783 15.2482C19.9503 14.7602 20.3223 14.3722 20.7943 14.0842C21.2663 13.7882 21.8023 13.6402 22.4023 13.6402C23.0183 13.6402 23.5543 13.7882 24.0103 14.0842C24.4743 14.3802 24.8383 14.7722 25.1023 15.2602C25.3663 15.7402 25.4983 16.2682 25.4983 16.8442C25.4983 16.9082 25.4983 16.9722 25.4983 17.0362C25.4983 17.0922 25.4943 17.1362 25.4863 17.1682H20.1343C20.1743 17.6162 20.2983 18.0162 20.5063 18.3682C20.7223 18.7122 20.9983 18.9882 21.3343 19.1962C21.6783 19.3962 22.0503 19.4962 22.4503 19.4962C22.8583 19.4962 23.2423 19.3922 23.6023 19.1842C23.9703 18.9762 24.2263 18.7042 24.3703 18.3682L25.0783 18.5602C24.9503 18.8562 24.7543 19.1242 24.4903 19.3642C24.2263 19.6042 23.9143 19.7922 23.5543 19.9282C23.2023 20.0562 22.8223 20.1202 22.4143 20.1202ZM20.1103 16.5802H24.7303C24.6983 16.1242 24.5743 15.7242 24.3583 15.3802C24.1503 15.0362 23.8743 14.7682 23.5303 14.5762C23.1943 14.3762 22.8223 14.2762 22.4143 14.2762C22.0063 14.2762 21.6343 14.3762 21.2983 14.5762C20.9623 14.7682 20.6863 15.0402 20.4703 15.3922C20.2623 15.7362 20.1423 16.1322 20.1103 16.5802ZM26.9549 13.7482L28.7909 16.1962L28.8869 16.3762L28.9829 16.1962L30.8069 13.7482H31.7309L29.3549 16.8922L31.7309 20.0002H30.8069L28.9829 17.5642L28.8869 17.3962L28.7909 17.5642L26.9669 20.0002H26.0429L28.4069 16.8922L26.0429 13.7482H26.9549ZM33.0498 20.0002V13.7482H33.8658V20.0002H33.0498ZM33.0498 12.4402V11.2402H33.8658V12.4402H33.0498ZM38.9631 20.1202C38.4751 20.1202 38.0231 19.9962 37.6071 19.7482C37.1911 19.4922 36.8671 19.1722 36.6351 18.7882V20.0002H35.9031V11.2402H36.7191V15.0562C36.9991 14.6322 37.3351 14.2922 37.7271 14.0362C38.1191 13.7722 38.5751 13.6402 39.0951 13.6402C39.5351 13.6402 39.9271 13.7322 40.2711 13.9162C40.6231 14.1002 40.9231 14.3482 41.1711 14.6602C41.4191 14.9642 41.6071 15.3122 41.7351 15.7042C41.8631 16.0882 41.9271 16.4842 41.9271 16.8922C41.9271 17.3322 41.8511 17.7442 41.6991 18.1282C41.5551 18.5122 41.3471 18.8562 41.0751 19.1602C40.8031 19.4562 40.4871 19.6922 40.1271 19.8682C39.7751 20.0362 39.3871 20.1202 38.9631 20.1202ZM38.7711 19.4002C39.1071 19.4002 39.4191 19.3322 39.7071 19.1962C39.9951 19.0602 40.2431 18.8722 40.4511 18.6322C40.6591 18.3922 40.8191 18.1242 40.9311 17.8282C41.0431 17.5242 41.0991 17.2122 41.0991 16.8922C41.0991 16.4522 41.0031 16.0402 40.8111 15.6562C40.6271 15.2642 40.3671 14.9522 40.0311 14.7202C39.7031 14.4802 39.3151 14.3602 38.8671 14.3602C38.5471 14.3602 38.2471 14.4322 37.9671 14.5762C37.6951 14.7202 37.4511 14.9122 37.2351 15.1522C37.0271 15.3842 36.8551 15.6402 36.7191 15.9202V17.8642C36.7511 18.0802 36.8351 18.2842 36.9711 18.4762C37.1071 18.6602 37.2751 18.8202 37.4751 18.9562C37.6831 19.0922 37.8991 19.2002 38.1231 19.2802C38.3471 19.3602 38.5631 19.4002 38.7711 19.4002ZM43.5493 20.0002V13.7482H44.3653V20.0002H43.5493ZM43.5493 12.4402V11.2402H44.3653V12.4402H43.5493ZM46.4386 11.2402H47.2546V18.5842C47.2546 18.8962 47.3106 19.1002 47.4226 19.1962C47.5346 19.2922 47.6706 19.3402 47.8306 19.3402C47.9746 19.3402 48.1186 19.3242 48.2626 19.2922C48.4066 19.2602 48.5306 19.2282 48.6346 19.1962L48.7786 19.8562C48.6266 19.9202 48.4386 19.9722 48.2146 20.0122C47.9986 20.0522 47.8106 20.0722 47.6506 20.0722C47.2826 20.0722 46.9866 19.9642 46.7626 19.7482C46.5466 19.5322 46.4386 19.2362 46.4386 18.8602V11.2402ZM49.9121 20.0002V13.7482H50.7281V20.0002H49.9121ZM49.9121 12.4402V11.2402H50.7281V12.4402H49.9121ZM55.7654 19.7002C55.7014 19.7242 55.6014 19.7682 55.4654 19.8322C55.3294 19.8962 55.1654 19.9522 54.9734 20.0002C54.7814 20.0482 54.5734 20.0722 54.3494 20.0722C54.1174 20.0722 53.8974 20.0282 53.6894 19.9402C53.4894 19.8522 53.3294 19.7202 53.2094 19.5442C53.0894 19.3602 53.0294 19.1362 53.0294 18.8722V14.3962H52.1654V13.7482H53.0294V11.6362H53.8454V13.7482H55.2854V14.3962H53.8454V18.6442C53.8614 18.8682 53.9414 19.0362 54.0854 19.1482C54.2374 19.2602 54.4094 19.3162 54.6014 19.3162C54.8254 19.3162 55.0294 19.2802 55.2134 19.2082C55.3974 19.1282 55.5094 19.0722 55.5494 19.0402L55.7654 19.7002ZM57.385 21.9202C57.497 21.9282 57.605 21.9322 57.709 21.9322C57.813 21.9402 57.889 21.9362 57.937 21.9202C58.033 21.9042 58.125 21.8482 58.213 21.7522C58.301 21.6562 58.405 21.4722 58.525 21.2002C58.645 20.9282 58.813 20.5282 59.029 20.0002L56.305 13.7482H57.169L59.461 19.1602L61.573 13.7482H62.389L59.149 21.8122C59.093 21.9642 59.009 22.1042 58.897 22.2322C58.785 22.3682 58.645 22.4722 58.477 22.5442C58.317 22.6242 58.117 22.6682 57.877 22.6762C57.805 22.6842 57.729 22.6842 57.649 22.6762C57.577 22.6762 57.489 22.6682 57.385 22.6522V21.9202Z" fill="black"/>
</g>
<defs>
<clipPath id="clip0_264_72">
<rect width="71" height="32" fill="white"/>
</clipPath>
</defs>
</svg>
