<svg width="32" height="32" viewBox="0 0 32 32" fill="none" xmlns="http://www.w3.org/2000/svg">
<g clip-path="url(#clip0_261_64)">
<path d="M24 0H8C3.58172 0 0 3.58172 0 8V24C0 28.4183 3.58172 32 8 32H24C28.4183 32 32 28.4183 32 24V8C32 3.58172 28.4183 0 24 0Z" fill="#E1E8EF"/>
<path d="M12.4879 20.0602C11.9199 20.0602 11.3919 19.9402 10.9039 19.7002C10.4159 19.4522 9.99191 19.1202 9.63191 18.7042C9.27191 18.2882 8.99191 17.8242 8.79191 17.3122C8.59991 16.8002 8.50391 16.2722 8.50391 15.7282C8.50391 15.1522 8.59991 14.6082 8.79191 14.0962C8.99191 13.5762 9.26791 13.1162 9.61991 12.7162C9.97191 12.3162 10.3879 12.0002 10.8679 11.7682C11.3479 11.5362 11.8719 11.4202 12.4399 11.4202C13.2799 11.4202 13.9639 11.5922 14.4919 11.9362C15.0199 12.2802 15.4199 12.7282 15.6919 13.2802L15.0439 13.7122C14.7719 13.1842 14.4079 12.7962 13.9519 12.5482C13.4959 12.3002 12.9879 12.1762 12.4279 12.1762C11.9559 12.1762 11.5279 12.2762 11.1439 12.4762C10.7679 12.6762 10.4439 12.9442 10.1719 13.2802C9.89991 13.6162 9.69191 13.9962 9.54791 14.4202C9.41191 14.8442 9.34391 15.2842 9.34391 15.7402C9.34391 16.2202 9.42391 16.6762 9.58391 17.1082C9.74391 17.5322 9.97191 17.9122 10.2679 18.2482C10.5639 18.5762 10.9039 18.8362 11.2879 19.0282C11.6799 19.2122 12.0999 19.3042 12.5479 19.3042C13.0679 19.3042 13.5599 19.1762 14.0239 18.9202C14.4879 18.6562 14.9319 18.2522 15.3559 17.7082V18.5962C14.5479 19.5722 13.5919 20.0602 12.4879 20.0602ZM15.2239 16.4602H13.3279V15.8122H15.9319V20.0002H15.2239V16.4602ZM17.7297 20.0002V13.7482H18.5457V20.0002H17.7297ZM17.7297 12.4402V11.2402H18.5457V12.4402H17.7297ZM23.583 19.7002C23.519 19.7242 23.419 19.7682 23.283 19.8322C23.147 19.8962 22.983 19.9522 22.791 20.0002C22.599 20.0482 22.391 20.0722 22.167 20.0722C21.935 20.0722 21.715 20.0282 21.507 19.9402C21.307 19.8522 21.147 19.7202 21.027 19.5442C20.907 19.3602 20.847 19.1362 20.847 18.8722V14.3962H19.983V13.7482H20.847V11.6362H21.663V13.7482H23.103V14.3962H21.663V18.6442C21.679 18.8682 21.759 19.0362 21.903 19.1482C22.055 19.2602 22.227 19.3162 22.419 19.3162C22.643 19.3162 22.847 19.2802 23.031 19.2082C23.215 19.1282 23.327 19.0722 23.367 19.0402L23.583 19.7002Z" fill="black"/>
</g>
<defs>
<clipPath id="clip0_261_64">
<rect width="32" height="32" fill="white"/>
</clipPath>
</defs>
</svg>
