<svg width="35" height="44" viewBox="0 0 35 44" fill="none" xmlns="http://www.w3.org/2000/svg">
<path d="M17.959 1.6601C17.8259 1.55635 17.662 1.5 17.4932 1.5C17.3245 1.5 17.1606 1.55635 17.0275 1.6601L6.25 10.0639L7.18225 11.2429L8.5 10.2154V19.4996C8.50079 19.8972 8.65908 20.2783 8.94022 20.5594C9.22135 20.8405 9.60242 20.9988 10 20.9996H25C25.3976 20.9988 25.7787 20.8405 26.0598 20.5594C26.3409 20.2783 26.4992 19.8972 26.5 19.4996V10.2221L27.8177 11.2496L28.75 10.0706L17.959 1.6601ZM19 19.4996H16V13.4996H19V19.4996ZM20.5 19.4996V13.4996C20.4996 13.1019 20.3414 12.7206 20.0602 12.4394C19.779 12.1582 19.3977 12 19 11.9996H16C15.6023 12 15.221 12.1582 14.9398 12.4394C14.6586 12.7206 14.5004 13.1019 14.5 13.4996V19.4996H10V9.0461L17.5 3.2036L25 9.0536V19.4996H20.5Z" fill="#1A1003" fill-opacity="0.5"/>
<path d="M7.95694 29.4805V38.0005H6.60094V34.2445H2.30494V38.0005H0.960938V29.4805H2.30494V33.0445H6.60094V29.4805H7.95694ZM12.4254 38.1205C11.9294 38.1205 11.4854 38.0365 11.0934 37.8685C10.7014 37.6925 10.3614 37.4525 10.0734 37.1485C9.79344 36.8445 9.57744 36.5005 9.42544 36.1165C9.27344 35.7245 9.19744 35.3085 9.19744 34.8685C9.19744 34.4285 9.27344 34.0125 9.42544 33.6205C9.57744 33.2285 9.79344 32.8845 10.0734 32.5885C10.3614 32.2845 10.7014 32.0485 11.0934 31.8805C11.4934 31.7045 11.9374 31.6165 12.4254 31.6165C12.9134 31.6165 13.3534 31.7045 13.7454 31.8805C14.1454 32.0485 14.4854 32.2845 14.7654 32.5885C15.0534 32.8845 15.2734 33.2285 15.4254 33.6205C15.5774 34.0125 15.6534 34.4285 15.6534 34.8685C15.6534 35.3085 15.5774 35.7245 15.4254 36.1165C15.2734 36.5005 15.0534 36.8445 14.7654 37.1485C14.4854 37.4525 14.1454 37.6925 13.7454 37.8685C13.3534 38.0365 12.9134 38.1205 12.4254 38.1205ZM10.5534 34.8805C10.5534 35.2805 10.6374 35.6405 10.8054 35.9605C10.9734 36.2805 11.1974 36.5325 11.4774 36.7165C11.7574 36.9005 12.0734 36.9925 12.4254 36.9925C12.7694 36.9925 13.0814 36.9005 13.3614 36.7165C13.6494 36.5245 13.8774 36.2685 14.0454 35.9485C14.2134 35.6205 14.2974 35.2605 14.2974 34.8685C14.2974 34.4685 14.2134 34.1085 14.0454 33.7885C13.8774 33.4685 13.6494 33.2165 13.3614 33.0325C13.0814 32.8405 12.7694 32.7445 12.4254 32.7445C12.0734 32.7445 11.7574 32.8405 11.4774 33.0325C11.1974 33.2245 10.9734 33.4805 10.8054 33.8005C10.6374 34.1125 10.5534 34.4725 10.5534 34.8805ZM26.4242 38.0005H25.1042V34.4845C25.1042 33.9005 25.0082 33.4725 24.8162 33.2005C24.6242 32.9285 24.3442 32.7925 23.9762 32.7925C23.6082 32.7925 23.2642 32.9325 22.9442 33.2125C22.6322 33.4845 22.4122 33.8405 22.2842 34.2805V38.0005H20.9642V34.4845C20.9642 33.9005 20.8682 33.4725 20.6762 33.2005C20.4842 32.9285 20.2082 32.7925 19.8482 32.7925C19.4802 32.7925 19.1362 32.9285 18.8162 33.2005C18.5042 33.4725 18.2802 33.8285 18.1442 34.2685V38.0005H16.8241V31.7245H18.0242V32.9845C18.2722 32.5445 18.5962 32.2085 18.9962 31.9765C19.4042 31.7365 19.8682 31.6165 20.3882 31.6165C20.9082 31.6165 21.3162 31.7525 21.6122 32.0245C21.9162 32.2965 22.1042 32.6365 22.1762 33.0445C22.4482 32.5805 22.7802 32.2285 23.1722 31.9885C23.5722 31.7405 24.0282 31.6165 24.5402 31.6165C24.9082 31.6165 25.2162 31.6845 25.4642 31.8205C25.7122 31.9565 25.9042 32.1445 26.0402 32.3845C26.1762 32.6165 26.2722 32.8885 26.3282 33.2005C26.3922 33.5045 26.4242 33.8285 26.4242 34.1725V38.0005ZM30.7892 38.1205C30.3012 38.1205 29.8572 38.0365 29.4572 37.8685C29.0652 37.6925 28.7252 37.4565 28.4372 37.1605C28.1492 36.8565 27.9252 36.5125 27.7652 36.1285C27.6132 35.7365 27.5372 35.3205 27.5372 34.8805C27.5372 34.2885 27.6732 33.7485 27.9452 33.2605C28.2172 32.7645 28.5972 32.3685 29.0852 32.0725C29.5732 31.7685 30.1452 31.6165 30.8012 31.6165C31.4572 31.6165 32.0212 31.7685 32.4932 32.0725C32.9732 32.3685 33.3452 32.7605 33.6092 33.2485C33.8732 33.7365 34.0052 34.2605 34.0052 34.8205C34.0052 34.9165 34.0012 35.0085 33.9932 35.0965C33.9852 35.1765 33.9772 35.2445 33.9692 35.3005H28.9412C28.9652 35.6685 29.0652 35.9925 29.2412 36.2725C29.4252 36.5445 29.6572 36.7605 29.9372 36.9205C30.2172 37.0725 30.5172 37.1485 30.8372 37.1485C31.1892 37.1485 31.5212 37.0605 31.8332 36.8845C32.1532 36.7085 32.3692 36.4765 32.4812 36.1885L33.6092 36.5125C33.4732 36.8165 33.2652 37.0925 32.9852 37.3405C32.7132 37.5805 32.3892 37.7725 32.0132 37.9165C31.6372 38.0525 31.2292 38.1205 30.7892 38.1205ZM28.9052 34.4245H32.6972C32.6732 34.0645 32.5692 33.7485 32.3852 33.4765C32.2092 33.1965 31.9812 32.9805 31.7012 32.8285C31.4292 32.6685 31.1252 32.5885 30.7892 32.5885C30.4612 32.5885 30.1572 32.6685 29.8772 32.8285C29.6052 32.9805 29.3812 33.1965 29.2052 33.4765C29.0292 33.7485 28.9292 34.0645 28.9052 34.4245Z" fill="black"/>
</svg>
