<svg width="61" height="32" viewBox="0 0 61 32" fill="none" xmlns="http://www.w3.org/2000/svg">
<g clip-path="url(#clip0_261_40)">
<path d="M53 0H8C3.58172 0 0 3.58172 0 8V24C0 28.4183 3.58172 32 8 32H53C57.4183 32 61 28.4183 61 24V8C61 3.58172 57.4183 0 53 0Z" fill="#E1E8EF"/>
<path d="M15.7864 11.4805V20.0005H14.9584V16.0165H9.90641V20.0005H9.06641V11.4805H9.90641V15.2725H14.9584V11.4805H15.7864ZM24.2138 12.2245H21.1778V20.0005H20.3378V12.2245H17.3018V11.4805H24.2138V12.2245ZM33.278 20.0005V13.0645L30.194 18.4525H29.666L26.57 13.0645V20.0005H25.73V11.4805H26.594L29.918 17.3125L33.266 11.4805H34.118V20.0005H33.278ZM36.4934 20.0005V11.4805H37.3334V19.2565H42.2534V20.0005H36.4934ZM48.7526 21.7885C48.1526 21.7885 47.6086 21.6365 47.1206 21.3325C46.6326 21.0365 46.2686 20.6445 46.0286 20.1565L46.5686 19.7485C46.7926 20.1405 47.0966 20.4565 47.4806 20.6965C47.8726 20.9365 48.3006 21.0565 48.7646 21.0565C49.1646 21.0565 49.5206 20.9685 49.8326 20.7925C50.1526 20.6165 50.4046 20.3725 50.5886 20.0605C50.7806 19.7485 50.8766 19.3885 50.8766 18.9805C50.8766 18.5885 50.7846 18.2445 50.6006 17.9485C50.4246 17.6445 50.1806 17.4085 49.8686 17.2405C49.5646 17.0725 49.2206 16.9885 48.8366 16.9885C48.4686 16.9885 48.1166 17.0725 47.7806 17.2405C47.4446 17.4005 47.1726 17.6365 46.9646 17.9485H46.2086L47.1566 13.1485H51.2726V13.9045H47.7686L47.1806 16.9645C47.3886 16.7405 47.6446 16.5685 47.9486 16.4485C48.2526 16.3205 48.5806 16.2565 48.9326 16.2565C49.4526 16.2565 49.9206 16.3725 50.3366 16.6045C50.7606 16.8365 51.0966 17.1565 51.3446 17.5645C51.5926 17.9725 51.7166 18.4405 51.7166 18.9685C51.7166 19.5285 51.5806 20.0205 51.3086 20.4445C51.0446 20.8685 50.6886 21.1965 50.2406 21.4285C49.7926 21.6685 49.2966 21.7885 48.7526 21.7885Z" fill="black"/>
</g>
<defs>
<clipPath id="clip0_261_40">
<rect width="61" height="32" fill="white"/>
</clipPath>
</defs>
</svg>
