<svg width="179" height="32" viewBox="0 0 179 32" fill="none" xmlns="http://www.w3.org/2000/svg">
<g clip-path="url(#clip0_264_78)">
<path d="M171 0H8C3.58172 0 0 3.58172 0 8V24C0 28.4183 3.58172 32 8 32H171C175.418 32 179 28.4183 179 24V8C179 3.58172 175.418 0 171 0Z" fill="#E1E8EF"/>
<path d="M9.06641 20.0002V11.4802H9.90641V20.0002H9.06641ZM21.415 20.0002H20.599V16.5082C20.599 15.7802 20.483 15.2442 20.251 14.9002C20.019 14.5562 19.675 14.3842 19.219 14.3842C18.747 14.3842 18.323 14.5522 17.947 14.8882C17.579 15.2242 17.319 15.6562 17.167 16.1842V20.0002H16.351V16.5082C16.351 15.7722 16.239 15.2362 16.015 14.9002C15.791 14.5562 15.447 14.3842 14.983 14.3842C14.519 14.3842 14.099 14.5482 13.723 14.8762C13.347 15.2042 13.083 15.6362 12.931 16.1722V20.0002H12.115V13.7482H12.859V15.1642C13.123 14.6762 13.459 14.3002 13.867 14.0362C14.283 13.7722 14.743 13.6402 15.247 13.6402C15.767 13.6402 16.187 13.7882 16.507 14.0842C16.827 14.3802 17.023 14.7682 17.095 15.2482C17.383 14.7202 17.727 14.3202 18.127 14.0482C18.535 13.7762 18.995 13.6402 19.507 13.6402C19.859 13.6402 20.155 13.7042 20.395 13.8322C20.643 13.9602 20.839 14.1442 20.983 14.3842C21.135 14.6162 21.243 14.9002 21.307 15.2362C21.379 15.5642 21.415 15.9322 21.415 16.3402V20.0002ZM26.5743 20.1202C26.0543 20.1202 25.5863 19.9842 25.1703 19.7122C24.7623 19.4402 24.4383 19.1042 24.1983 18.7042V22.5562H23.3823V13.7482H24.1143V14.9602C24.3623 14.5682 24.6943 14.2522 25.1103 14.0122C25.5263 13.7642 25.9703 13.6402 26.4423 13.6402C26.8743 13.6402 27.2703 13.7322 27.6303 13.9162C27.9903 14.0922 28.3023 14.3322 28.5663 14.6362C28.8303 14.9402 29.0343 15.2882 29.1783 15.6802C29.3303 16.0642 29.4063 16.4642 29.4063 16.8802C29.4063 17.4642 29.2863 18.0042 29.0463 18.5002C28.8143 18.9882 28.4863 19.3802 28.0623 19.6762C27.6383 19.9722 27.1423 20.1202 26.5743 20.1202ZM26.3463 19.4002C26.6903 19.4002 26.9983 19.3322 27.2703 19.1962C27.5423 19.0522 27.7743 18.8602 27.9663 18.6202C28.1663 18.3802 28.3183 18.1122 28.4223 17.8162C28.5263 17.5122 28.5783 17.2002 28.5783 16.8802C28.5783 16.5442 28.5183 16.2242 28.3983 15.9202C28.2863 15.6162 28.1223 15.3482 27.9063 15.1162C27.6903 14.8842 27.4423 14.7002 27.1623 14.5642C26.8823 14.4282 26.5783 14.3602 26.2503 14.3602C26.0423 14.3602 25.8263 14.4002 25.6023 14.4802C25.3783 14.5602 25.1623 14.6762 24.9543 14.8282C24.7543 14.9722 24.5863 15.1362 24.4503 15.3202C24.3143 15.5042 24.2303 15.7002 24.1983 15.9082V17.8282C24.3263 18.1242 24.4983 18.3922 24.7143 18.6322C24.9303 18.8642 25.1783 19.0522 25.4583 19.1962C25.7463 19.3322 26.0423 19.4002 26.3463 19.4002ZM33.7286 20.1202C33.2806 20.1202 32.8646 20.0362 32.4806 19.8682C32.0966 19.6922 31.7646 19.4562 31.4846 19.1602C31.2046 18.8562 30.9846 18.5082 30.8246 18.1162C30.6726 17.7242 30.5966 17.3042 30.5966 16.8562C30.5966 16.2722 30.7286 15.7362 30.9926 15.2482C31.2646 14.7602 31.6366 14.3722 32.1086 14.0842C32.5806 13.7882 33.1166 13.6402 33.7166 13.6402C34.3326 13.6402 34.8686 13.7882 35.3246 14.0842C35.7886 14.3802 36.1526 14.7722 36.4166 15.2602C36.6806 15.7402 36.8126 16.2682 36.8126 16.8442C36.8126 16.9082 36.8126 16.9722 36.8126 17.0362C36.8126 17.0922 36.8086 17.1362 36.8006 17.1682H31.4486C31.4886 17.6162 31.6126 18.0162 31.8206 18.3682C32.0366 18.7122 32.3126 18.9882 32.6486 19.1962C32.9926 19.3962 33.3646 19.4962 33.7646 19.4962C34.1726 19.4962 34.5566 19.3922 34.9166 19.1842C35.2846 18.9762 35.5406 18.7042 35.6846 18.3682L36.3926 18.5602C36.2646 18.8562 36.0686 19.1242 35.8046 19.3642C35.5406 19.6042 35.2286 19.7922 34.8686 19.9282C34.5166 20.0562 34.1366 20.1202 33.7286 20.1202ZM31.4246 16.5802H36.0446C36.0126 16.1242 35.8886 15.7242 35.6726 15.3802C35.4646 15.0362 35.1886 14.7682 34.8446 14.5762C34.5086 14.3762 34.1366 14.2762 33.7286 14.2762C33.3206 14.2762 32.9486 14.3762 32.6126 14.5762C32.2766 14.7682 32.0006 15.0402 31.7846 15.3922C31.5766 15.7362 31.4566 16.1322 31.4246 16.5802ZM41.0235 20.1202C40.5675 20.1202 40.1475 20.0362 39.7635 19.8682C39.3875 19.6922 39.0555 19.4522 38.7675 19.1482C38.4875 18.8442 38.2675 18.4962 38.1075 18.1042C37.9555 17.7122 37.8795 17.2962 37.8795 16.8562C37.8795 16.2642 38.0115 15.7242 38.2755 15.2362C38.5395 14.7482 38.9075 14.3602 39.3795 14.0722C39.8515 13.7842 40.3955 13.6402 41.0115 13.6402C41.5955 13.6402 42.1115 13.7762 42.5595 14.0482C43.0075 14.3122 43.3395 14.6722 43.5555 15.1282L42.7635 15.3802C42.5875 15.0602 42.3395 14.8122 42.0195 14.6362C41.7075 14.4522 41.3595 14.3602 40.9755 14.3602C40.5595 14.3602 40.1795 14.4682 39.8355 14.6842C39.4915 14.9002 39.2155 15.1962 39.0075 15.5722C38.8075 15.9482 38.7075 16.3762 38.7075 16.8562C38.7075 17.3282 38.8115 17.7562 39.0195 18.1402C39.2275 18.5242 39.5035 18.8322 39.8475 19.0642C40.1915 19.2882 40.5715 19.4002 40.9875 19.4002C41.2595 19.4002 41.5195 19.3522 41.7675 19.2562C42.0235 19.1602 42.2435 19.0322 42.4275 18.8722C42.6195 18.7042 42.7475 18.5242 42.8115 18.3322L43.6155 18.5722C43.5035 18.8682 43.3155 19.1362 43.0515 19.3762C42.7955 19.6082 42.4915 19.7922 42.1395 19.9282C41.7955 20.0562 41.4235 20.1202 41.0235 20.1202ZM47.7909 20.1202C47.3349 20.1202 46.9149 20.0362 46.5309 19.8682C46.1549 19.6922 45.8229 19.4522 45.5349 19.1482C45.2549 18.8442 45.0349 18.4962 44.8749 18.1042C44.7229 17.7122 44.6469 17.2962 44.6469 16.8562C44.6469 16.2642 44.7789 15.7242 45.0429 15.2362C45.3069 14.7482 45.6749 14.3602 46.1469 14.0722C46.6189 13.7842 47.1629 13.6402 47.7789 13.6402C48.3629 13.6402 48.8789 13.7762 49.3269 14.0482C49.7749 14.3122 50.1069 14.6722 50.3229 15.1282L49.5309 15.3802C49.3549 15.0602 49.1069 14.8122 48.7869 14.6362C48.4749 14.4522 48.1269 14.3602 47.7429 14.3602C47.3269 14.3602 46.9469 14.4682 46.6029 14.6842C46.2589 14.9002 45.9829 15.1962 45.7749 15.5722C45.5749 15.9482 45.4749 16.3762 45.4749 16.8562C45.4749 17.3282 45.5789 17.7562 45.7869 18.1402C45.9949 18.5242 46.2709 18.8322 46.6149 19.0642C46.9589 19.2882 47.3389 19.4002 47.7549 19.4002C48.0269 19.4002 48.2869 19.3522 48.5349 19.2562C48.7909 19.1602 49.0109 19.0322 49.1949 18.8722C49.3869 18.7042 49.5149 18.5242 49.5789 18.3322L50.3829 18.5722C50.2709 18.8682 50.0829 19.1362 49.8189 19.3762C49.5629 19.6082 49.2589 19.7922 48.9069 19.9282C48.5629 20.0562 48.1909 20.1202 47.7909 20.1202ZM51.4008 18.2002C51.4008 17.8082 51.5128 17.4722 51.7368 17.1922C51.9608 16.9042 52.2688 16.6842 52.6608 16.5322C53.0608 16.3722 53.5208 16.2922 54.0408 16.2922C54.3448 16.2922 54.6608 16.3162 54.9888 16.3642C55.3168 16.4122 55.6088 16.4842 55.8648 16.5802V16.0522C55.8648 15.5242 55.7088 15.1042 55.3968 14.7922C55.0848 14.4802 54.6528 14.3242 54.1008 14.3242C53.7648 14.3242 53.4328 14.3882 53.1048 14.5162C52.7848 14.6362 52.4488 14.8162 52.0968 15.0562L51.7848 14.4802C52.1928 14.2002 52.5928 13.9922 52.9848 13.8562C53.3768 13.7122 53.7768 13.6402 54.1848 13.6402C54.9528 13.6402 55.5608 13.8602 56.0088 14.3002C56.4568 14.7402 56.6808 15.3482 56.6808 16.1242V19.0162C56.6808 19.1282 56.7048 19.2122 56.7528 19.2682C56.8008 19.3162 56.8768 19.3442 56.9808 19.3522V20.0002C56.8928 20.0082 56.8168 20.0162 56.7528 20.0242C56.6888 20.0322 56.6408 20.0322 56.6088 20.0242C56.4088 20.0162 56.2568 19.9522 56.1528 19.8322C56.0488 19.7122 55.9928 19.5842 55.9848 19.4482L55.9728 18.9922C55.6928 19.3522 55.3288 19.6322 54.8808 19.8322C54.4328 20.0242 53.9768 20.1202 53.5128 20.1202C53.1128 20.1202 52.7488 20.0362 52.4208 19.8682C52.1008 19.6922 51.8488 19.4602 51.6648 19.1722C51.4888 18.8762 51.4008 18.5522 51.4008 18.2002ZM55.5888 18.6802C55.6768 18.5682 55.7448 18.4602 55.7928 18.3562C55.8408 18.2522 55.8648 18.1602 55.8648 18.0802V17.1682C55.5928 17.0642 55.3088 16.9842 55.0128 16.9282C54.7248 16.8722 54.4328 16.8442 54.1368 16.8442C53.5528 16.8442 53.0808 16.9602 52.7208 17.1922C52.3608 17.4242 52.1808 17.7402 52.1808 18.1402C52.1808 18.3722 52.2408 18.5922 52.3608 18.8002C52.4808 19.0002 52.6568 19.1682 52.8888 19.3042C53.1208 19.4322 53.3928 19.4962 53.7048 19.4962C54.0968 19.4962 54.4608 19.4202 54.7968 19.2682C55.1408 19.1162 55.4048 18.9202 55.5888 18.6802ZM61.7439 20.1202C61.2559 20.1202 60.8039 19.9962 60.3879 19.7482C59.9719 19.4922 59.6479 19.1722 59.4159 18.7882V20.0002H58.6839V11.2402H59.4999V15.0562C59.7799 14.6322 60.1159 14.2922 60.5079 14.0362C60.8999 13.7722 61.3559 13.6402 61.8759 13.6402C62.3159 13.6402 62.7079 13.7322 63.0519 13.9162C63.4039 14.1002 63.7039 14.3482 63.9519 14.6602C64.1999 14.9642 64.3879 15.3122 64.5159 15.7042C64.6439 16.0882 64.7079 16.4842 64.7079 16.8922C64.7079 17.3322 64.6319 17.7442 64.4799 18.1282C64.3359 18.5122 64.1279 18.8562 63.8559 19.1602C63.5839 19.4562 63.2679 19.6922 62.9079 19.8682C62.5559 20.0362 62.1679 20.1202 61.7439 20.1202ZM61.5519 19.4002C61.8879 19.4002 62.1999 19.3322 62.4879 19.1962C62.7759 19.0602 63.0239 18.8722 63.2319 18.6322C63.4399 18.3922 63.5999 18.1242 63.7119 17.8282C63.8239 17.5242 63.8799 17.2122 63.8799 16.8922C63.8799 16.4522 63.7839 16.0402 63.5919 15.6562C63.4079 15.2642 63.1479 14.9522 62.8119 14.7202C62.4839 14.4802 62.0959 14.3602 61.6479 14.3602C61.3279 14.3602 61.0279 14.4322 60.7479 14.5762C60.4759 14.7202 60.2319 14.9122 60.0159 15.1522C59.8079 15.3842 59.6359 15.6402 59.4999 15.9202V17.8642C59.5319 18.0802 59.6159 18.2842 59.7519 18.4762C59.8879 18.6602 60.0559 18.8202 60.2559 18.9562C60.4639 19.0922 60.6799 19.2002 60.9039 19.2802C61.1279 19.3602 61.3439 19.4002 61.5519 19.4002ZM66.3661 11.2402H67.1821V18.5842C67.1821 18.8962 67.2381 19.1002 67.3501 19.1962C67.4621 19.2922 67.5981 19.3402 67.7581 19.3402C67.9021 19.3402 68.0461 19.3242 68.1901 19.2922C68.3341 19.2602 68.4581 19.2282 68.5621 19.1962L68.7061 19.8562C68.5541 19.9202 68.3661 19.9722 68.1421 20.0122C67.9261 20.0522 67.7381 20.0722 67.5781 20.0722C67.2101 20.0722 66.9141 19.9642 66.6901 19.7482C66.4741 19.5322 66.3661 19.2362 66.3661 18.8602V11.2402ZM72.5396 20.1202C72.0917 20.1202 71.6757 20.0362 71.2916 19.8682C70.9076 19.6922 70.5756 19.4562 70.2956 19.1602C70.0156 18.8562 69.7956 18.5082 69.6356 18.1162C69.4836 17.7242 69.4076 17.3042 69.4076 16.8562C69.4076 16.2722 69.5396 15.7362 69.8036 15.2482C70.0756 14.7602 70.4476 14.3722 70.9196 14.0842C71.3916 13.7882 71.9277 13.6402 72.5277 13.6402C73.1437 13.6402 73.6797 13.7882 74.1357 14.0842C74.5997 14.3802 74.9637 14.7722 75.2277 15.2602C75.4917 15.7402 75.6237 16.2682 75.6237 16.8442C75.6237 16.9082 75.6237 16.9722 75.6237 17.0362C75.6237 17.0922 75.6197 17.1362 75.6117 17.1682H70.2596C70.2996 17.6162 70.4236 18.0162 70.6316 18.3682C70.8476 18.7122 71.1236 18.9882 71.4596 19.1962C71.8037 19.3962 72.1757 19.4962 72.5756 19.4962C72.9836 19.4962 73.3676 19.3922 73.7277 19.1842C74.0957 18.9762 74.3517 18.7042 74.4957 18.3682L75.2037 18.5602C75.0757 18.8562 74.8797 19.1242 74.6157 19.3642C74.3517 19.6042 74.0397 19.7922 73.6796 19.9282C73.3276 20.0562 72.9476 20.1202 72.5396 20.1202ZM70.2356 16.5802H74.8557C74.8237 16.1242 74.6997 15.7242 74.4836 15.3802C74.2757 15.0362 73.9997 14.7682 73.6556 14.5762C73.3196 14.3762 72.9476 14.2762 72.5396 14.2762C72.1316 14.2762 71.7597 14.3762 71.4237 14.5762C71.0876 14.7682 70.8116 15.0402 70.5956 15.3922C70.3876 15.7362 70.2676 16.1322 70.2356 16.5802ZM80.0252 15.6802C80.0252 15.1602 80.1132 14.6522 80.2892 14.1562C80.4732 13.6522 80.7372 13.1962 81.0812 12.7882C81.4252 12.3722 81.8492 12.0442 82.3532 11.8042C82.8572 11.5562 83.4292 11.4322 84.0692 11.4322C84.8292 11.4322 85.4772 11.6082 86.0132 11.9602C86.5572 12.3042 86.9572 12.7482 87.2132 13.2922L86.5532 13.7002C86.3692 13.3242 86.1372 13.0282 85.8572 12.8122C85.5772 12.5882 85.2772 12.4282 84.9572 12.3322C84.6452 12.2362 84.3332 12.1882 84.0212 12.1882C83.5092 12.1882 83.0572 12.2922 82.6652 12.5002C82.2732 12.7002 81.9412 12.9722 81.6692 13.3162C81.4052 13.6522 81.2052 14.0322 81.0692 14.4562C80.9332 14.8722 80.8652 15.2962 80.8652 15.7282C80.8652 16.2002 80.9452 16.6522 81.1052 17.0842C81.2652 17.5162 81.4892 17.9002 81.7772 18.2362C82.0652 18.5642 82.4012 18.8282 82.7852 19.0282C83.1772 19.2202 83.6012 19.3162 84.0572 19.3162C84.3772 19.3162 84.7052 19.2602 85.0412 19.1482C85.3772 19.0362 85.6892 18.8642 85.9772 18.6322C86.2732 18.4002 86.5092 18.1002 86.6852 17.7322L87.3812 18.0922C87.2052 18.5162 86.9332 18.8762 86.5652 19.1722C86.1972 19.4682 85.7852 19.6922 85.3292 19.8442C84.8812 19.9962 84.4412 20.0722 84.0092 20.0722C83.4252 20.0722 82.8892 19.9482 82.4012 19.7002C81.9132 19.4442 81.4892 19.1082 81.1292 18.6922C80.7772 18.2682 80.5052 17.7962 80.3132 17.2762C80.1212 16.7482 80.0252 16.2162 80.0252 15.6802ZM91.5518 20.1202C91.1038 20.1202 90.6878 20.0362 90.3038 19.8682C89.9278 19.6922 89.5998 19.4562 89.3198 19.1602C89.0478 18.8562 88.8358 18.5122 88.6838 18.1282C88.5318 17.7362 88.4558 17.3242 88.4558 16.8922C88.4558 16.4442 88.5318 16.0282 88.6838 15.6442C88.8358 15.2522 89.0518 14.9082 89.3318 14.6122C89.6118 14.3082 89.9398 14.0722 90.3158 13.9042C90.6998 13.7282 91.1158 13.6402 91.5638 13.6402C92.0118 13.6402 92.4238 13.7282 92.7998 13.9042C93.1758 14.0722 93.5038 14.3082 93.7838 14.6122C94.0638 14.9082 94.2798 15.2522 94.4318 15.6442C94.5838 16.0282 94.6598 16.4442 94.6598 16.8922C94.6598 17.3242 94.5838 17.7362 94.4318 18.1282C94.2798 18.5122 94.0638 18.8562 93.7838 19.1602C93.5118 19.4562 93.1838 19.6922 92.7998 19.8682C92.4238 20.0362 92.0078 20.1202 91.5518 20.1202ZM89.2838 16.9042C89.2838 17.3682 89.3838 17.7922 89.5838 18.1762C89.7918 18.5522 90.0678 18.8522 90.4118 19.0762C90.7558 19.2922 91.1358 19.4002 91.5518 19.4002C91.9678 19.4002 92.3478 19.2882 92.6918 19.0642C93.0358 18.8402 93.3118 18.5362 93.5198 18.1522C93.7278 17.7602 93.8318 17.3362 93.8318 16.8802C93.8318 16.4162 93.7278 15.9922 93.5198 15.6082C93.3118 15.2242 93.0358 14.9202 92.6918 14.6962C92.3478 14.4722 91.9678 14.3602 91.5518 14.3602C91.1358 14.3602 90.7558 14.4762 90.4118 14.7082C90.0758 14.9402 89.8038 15.2482 89.5958 15.6322C89.3878 16.0082 89.2838 16.4322 89.2838 16.9042ZM105.564 20.0002H104.748V16.5082C104.748 15.7802 104.632 15.2442 104.4 14.9002C104.168 14.5562 103.824 14.3842 103.368 14.3842C102.896 14.3842 102.472 14.5522 102.096 14.8882C101.728 15.2242 101.468 15.6562 101.316 16.1842V20.0002H100.5V16.5082C100.5 15.7722 100.388 15.2362 100.164 14.9002C99.9405 14.5562 99.5965 14.3842 99.1325 14.3842C98.6685 14.3842 98.2485 14.5482 97.8725 14.8762C97.4965 15.2042 97.2325 15.6362 97.0805 16.1722V20.0002H96.2645V13.7482H97.0085V15.1642C97.2725 14.6762 97.6085 14.3002 98.0165 14.0362C98.4325 13.7722 98.8925 13.6402 99.3965 13.6402C99.9165 13.6402 100.336 13.7882 100.656 14.0842C100.976 14.3802 101.172 14.7682 101.244 15.2482C101.532 14.7202 101.876 14.3202 102.276 14.0482C102.684 13.7762 103.144 13.6402 103.656 13.6402C104.008 13.6402 104.304 13.7042 104.544 13.8322C104.792 13.9602 104.988 14.1442 105.132 14.3842C105.284 14.6162 105.392 14.9002 105.456 15.2362C105.528 15.5642 105.564 15.9322 105.564 16.3402V20.0002ZM116.831 20.0002H116.015V16.5082C116.015 15.7802 115.899 15.2442 115.667 14.9002C115.435 14.5562 115.091 14.3842 114.635 14.3842C114.163 14.3842 113.739 14.5522 113.363 14.8882C112.995 15.2242 112.735 15.6562 112.583 16.1842V20.0002H111.767V16.5082C111.767 15.7722 111.655 15.2362 111.431 14.9002C111.207 14.5562 110.863 14.3842 110.399 14.3842C109.935 14.3842 109.515 14.5482 109.139 14.8762C108.763 15.2042 108.499 15.6362 108.347 16.1722V20.0002H107.531V13.7482H108.275V15.1642C108.539 14.6762 108.875 14.3002 109.283 14.0362C109.699 13.7722 110.159 13.6402 110.663 13.6402C111.183 13.6402 111.603 13.7882 111.923 14.0842C112.243 14.3802 112.439 14.7682 112.511 15.2482C112.799 14.7202 113.143 14.3202 113.543 14.0482C113.951 13.7762 114.411 13.6402 114.923 13.6402C115.275 13.6402 115.571 13.7042 115.811 13.8322C116.059 13.9602 116.255 14.1442 116.399 14.3842C116.551 14.6162 116.659 14.9002 116.723 15.2362C116.795 15.5642 116.831 15.9322 116.831 16.3402V20.0002ZM118.739 17.4202V13.7482H119.555V17.2762C119.555 17.9882 119.675 18.5202 119.915 18.8722C120.163 19.2242 120.527 19.4002 121.007 19.4002C121.327 19.4002 121.635 19.3322 121.931 19.1962C122.235 19.0522 122.503 18.8522 122.735 18.5962C122.967 18.3322 123.143 18.0282 123.263 17.6842V13.7482H124.079V19.0162C124.079 19.1282 124.103 19.2122 124.151 19.2682C124.199 19.3162 124.271 19.3442 124.367 19.3522V20.0002C124.271 20.0082 124.195 20.0122 124.139 20.0122C124.083 20.0202 124.031 20.0242 123.983 20.0242C123.823 20.0082 123.683 19.9442 123.563 19.8322C123.451 19.7202 123.391 19.5842 123.383 19.4242L123.359 18.5842C123.087 19.0642 122.715 19.4402 122.243 19.7122C121.779 19.9842 121.275 20.1202 120.731 20.1202C120.075 20.1202 119.579 19.8922 119.243 19.4362C118.907 18.9802 118.739 18.3082 118.739 17.4202ZM131.42 20.0002H130.604V16.5082C130.604 15.7722 130.496 15.2362 130.28 14.9002C130.064 14.5562 129.724 14.3842 129.26 14.3842C128.94 14.3842 128.624 14.4642 128.312 14.6242C128 14.7762 127.724 14.9882 127.484 15.2602C127.252 15.5242 127.084 15.8282 126.98 16.1722V20.0002H126.164V13.7482H126.908V15.1642C127.076 14.8602 127.296 14.5962 127.568 14.3722C127.84 14.1402 128.148 13.9602 128.492 13.8322C128.836 13.7042 129.192 13.6402 129.56 13.6402C129.904 13.6402 130.196 13.7042 130.436 13.8322C130.676 13.9602 130.868 14.1442 131.012 14.3842C131.156 14.6162 131.26 14.9002 131.324 15.2362C131.388 15.5642 131.42 15.9322 131.42 16.3402V20.0002ZM133.4 20.0002V13.7482H134.216V20.0002H133.4ZM133.4 12.4402V11.2402H134.216V12.4402H133.4ZM138.965 20.1202C138.509 20.1202 138.089 20.0362 137.705 19.8682C137.329 19.6922 136.997 19.4522 136.709 19.1482C136.429 18.8442 136.209 18.4962 136.049 18.1042C135.897 17.7122 135.821 17.2962 135.821 16.8562C135.821 16.2642 135.953 15.7242 136.217 15.2362C136.481 14.7482 136.849 14.3602 137.321 14.0722C137.793 13.7842 138.337 13.6402 138.953 13.6402C139.537 13.6402 140.053 13.7762 140.501 14.0482C140.949 14.3122 141.281 14.6722 141.497 15.1282L140.705 15.3802C140.529 15.0602 140.281 14.8122 139.961 14.6362C139.649 14.4522 139.301 14.3602 138.917 14.3602C138.501 14.3602 138.121 14.4682 137.777 14.6842C137.433 14.9002 137.157 15.1962 136.949 15.5722C136.749 15.9482 136.649 16.3762 136.649 16.8562C136.649 17.3282 136.753 17.7562 136.961 18.1402C137.169 18.5242 137.445 18.8322 137.789 19.0642C138.133 19.2882 138.513 19.4002 138.929 19.4002C139.201 19.4002 139.461 19.3522 139.709 19.2562C139.965 19.1602 140.185 19.0322 140.369 18.8722C140.561 18.7042 140.689 18.5242 140.753 18.3322L141.557 18.5722C141.445 18.8682 141.257 19.1362 140.993 19.3762C140.737 19.6082 140.433 19.7922 140.081 19.9282C139.737 20.0562 139.365 20.1202 138.965 20.1202ZM142.575 18.2002C142.575 17.8082 142.687 17.4722 142.911 17.1922C143.135 16.9042 143.443 16.6842 143.835 16.5322C144.235 16.3722 144.695 16.2922 145.215 16.2922C145.519 16.2922 145.835 16.3162 146.163 16.3642C146.491 16.4122 146.783 16.4842 147.039 16.5802V16.0522C147.039 15.5242 146.883 15.1042 146.571 14.7922C146.259 14.4802 145.827 14.3242 145.275 14.3242C144.939 14.3242 144.607 14.3882 144.279 14.5162C143.959 14.6362 143.623 14.8162 143.271 15.0562L142.959 14.4802C143.367 14.2002 143.767 13.9922 144.159 13.8562C144.551 13.7122 144.951 13.6402 145.359 13.6402C146.127 13.6402 146.735 13.8602 147.183 14.3002C147.631 14.7402 147.855 15.3482 147.855 16.1242V19.0162C147.855 19.1282 147.879 19.2122 147.927 19.2682C147.975 19.3162 148.051 19.3442 148.155 19.3522V20.0002C148.067 20.0082 147.991 20.0162 147.927 20.0242C147.863 20.0322 147.815 20.0322 147.783 20.0242C147.583 20.0162 147.431 19.9522 147.327 19.8322C147.223 19.7122 147.167 19.5842 147.159 19.4482L147.147 18.9922C146.867 19.3522 146.503 19.6322 146.055 19.8322C145.607 20.0242 145.151 20.1202 144.687 20.1202C144.287 20.1202 143.923 20.0362 143.595 19.8682C143.275 19.6922 143.023 19.4602 142.839 19.1722C142.663 18.8762 142.575 18.5522 142.575 18.2002ZM146.763 18.6802C146.851 18.5682 146.919 18.4602 146.967 18.3562C147.015 18.2522 147.039 18.1602 147.039 18.0802V17.1682C146.767 17.0642 146.483 16.9842 146.187 16.9282C145.899 16.8722 145.607 16.8442 145.311 16.8442C144.727 16.8442 144.255 16.9602 143.895 17.1922C143.535 17.4242 143.355 17.7402 143.355 18.1402C143.355 18.3722 143.415 18.5922 143.535 18.8002C143.655 19.0002 143.831 19.1682 144.063 19.3042C144.295 19.4322 144.567 19.4962 144.879 19.4962C145.271 19.4962 145.635 19.4202 145.971 19.2682C146.315 19.1162 146.579 18.9202 146.763 18.6802ZM152.811 19.7002C152.747 19.7242 152.647 19.7682 152.511 19.8322C152.375 19.8962 152.211 19.9522 152.019 20.0002C151.827 20.0482 151.619 20.0722 151.395 20.0722C151.163 20.0722 150.943 20.0282 150.735 19.9402C150.535 19.8522 150.375 19.7202 150.255 19.5442C150.135 19.3602 150.075 19.1362 150.075 18.8722V14.3962H149.211V13.7482H150.075V11.6362H150.891V13.7482H152.331V14.3962H150.891V18.6442C150.907 18.8682 150.987 19.0362 151.131 19.1482C151.283 19.2602 151.455 19.3162 151.647 19.3162C151.871 19.3162 152.075 19.2802 152.259 19.2082C152.443 19.1282 152.555 19.0722 152.595 19.0402L152.811 19.7002ZM154.071 20.0002V13.7482H154.887V20.0002H154.071ZM154.071 12.4402V11.2402H154.887V12.4402H154.071ZM159.588 20.1202C159.14 20.1202 158.724 20.0362 158.34 19.8682C157.964 19.6922 157.636 19.4562 157.356 19.1602C157.084 18.8562 156.872 18.5122 156.72 18.1282C156.568 17.7362 156.492 17.3242 156.492 16.8922C156.492 16.4442 156.568 16.0282 156.72 15.6442C156.872 15.2522 157.088 14.9082 157.368 14.6122C157.648 14.3082 157.976 14.0722 158.352 13.9042C158.736 13.7282 159.152 13.6402 159.6 13.6402C160.048 13.6402 160.46 13.7282 160.836 13.9042C161.212 14.0722 161.54 14.3082 161.82 14.6122C162.1 14.9082 162.316 15.2522 162.468 15.6442C162.62 16.0282 162.696 16.4442 162.696 16.8922C162.696 17.3242 162.62 17.7362 162.468 18.1282C162.316 18.5122 162.1 18.8562 161.82 19.1602C161.548 19.4562 161.22 19.6922 160.836 19.8682C160.46 20.0362 160.044 20.1202 159.588 20.1202ZM157.32 16.9042C157.32 17.3682 157.42 17.7922 157.62 18.1762C157.828 18.5522 158.104 18.8522 158.448 19.0762C158.792 19.2922 159.172 19.4002 159.588 19.4002C160.004 19.4002 160.384 19.2882 160.728 19.0642C161.072 18.8402 161.348 18.5362 161.556 18.1522C161.764 17.7602 161.868 17.3362 161.868 16.8802C161.868 16.4162 161.764 15.9922 161.556 15.6082C161.348 15.2242 161.072 14.9202 160.728 14.6962C160.384 14.4722 160.004 14.3602 159.588 14.3602C159.172 14.3602 158.792 14.4762 158.448 14.7082C158.112 14.9402 157.84 15.2482 157.632 15.6322C157.424 16.0082 157.32 16.4322 157.32 16.9042ZM169.557 20.0002H168.741V16.5082C168.741 15.7722 168.633 15.2362 168.417 14.9002C168.201 14.5562 167.861 14.3842 167.397 14.3842C167.077 14.3842 166.761 14.4642 166.449 14.6242C166.137 14.7762 165.861 14.9882 165.621 15.2602C165.389 15.5242 165.221 15.8282 165.117 16.1722V20.0002H164.301V13.7482H165.045V15.1642C165.213 14.8602 165.433 14.5962 165.705 14.3722C165.977 14.1402 166.285 13.9602 166.629 13.8322C166.973 13.7042 167.329 13.6402 167.697 13.6402C168.041 13.6402 168.333 13.7042 168.573 13.8322C168.813 13.9602 169.005 14.1442 169.149 14.3842C169.293 14.6162 169.397 14.9002 169.461 15.2362C169.525 15.5642 169.557 15.9322 169.557 16.3402V20.0002Z" fill="black"/>
</g>
<defs>
<clipPath id="clip0_264_78">
<rect width="179" height="32" fill="white"/>
</clipPath>
</defs>
</svg>
