<svg width="76" height="32" viewBox="0 0 76 32" fill="none" xmlns="http://www.w3.org/2000/svg">
<g clip-path="url(#clip0_261_56)">
<path d="M68 0H8C3.58172 0 0 3.58172 0 8V24C0 28.4183 3.58172 32 8 32H68C72.4183 32 76 28.4183 76 24V8C76 3.58172 72.4183 0 68 0Z" fill="#E1E8EF"/>
<path d="M8.40797 18.9322C8.57597 19.0522 8.79597 19.1562 9.06797 19.2442C9.34797 19.3322 9.66797 19.3762 10.028 19.3762C10.444 19.3762 10.78 19.3082 11.036 19.1722C11.292 19.0282 11.488 18.8162 11.624 18.5362C11.76 18.2482 11.852 17.8922 11.9 17.4682C11.948 17.0442 11.972 16.5482 11.972 15.9802V11.4802H12.812V15.8122C12.812 16.4522 12.78 17.0362 12.716 17.5642C12.652 18.0922 12.528 18.5482 12.344 18.9322C12.16 19.3162 11.884 19.6122 11.516 19.8202C11.148 20.0282 10.66 20.1322 10.052 20.1322C9.65997 20.1322 9.31197 20.0882 9.00797 20.0002C8.70397 19.9122 8.42397 19.7802 8.16797 19.6042L8.40797 18.9322ZM14.3196 18.2002C14.3196 17.8082 14.4316 17.4722 14.6556 17.1922C14.8796 16.9042 15.1876 16.6842 15.5796 16.5322C15.9796 16.3722 16.4396 16.2922 16.9596 16.2922C17.2636 16.2922 17.5796 16.3162 17.9076 16.3642C18.2356 16.4122 18.5276 16.4842 18.7836 16.5802V16.0522C18.7836 15.5242 18.6276 15.1042 18.3156 14.7922C18.0036 14.4802 17.5716 14.3242 17.0196 14.3242C16.6836 14.3242 16.3516 14.3882 16.0236 14.5162C15.7036 14.6362 15.3676 14.8162 15.0156 15.0562L14.7036 14.4802C15.1116 14.2002 15.5116 13.9922 15.9036 13.8562C16.2956 13.7122 16.6956 13.6402 17.1036 13.6402C17.8716 13.6402 18.4796 13.8602 18.9276 14.3002C19.3756 14.7402 19.5996 15.3482 19.5996 16.1242V19.0162C19.5996 19.1282 19.6236 19.2122 19.6716 19.2682C19.7196 19.3162 19.7956 19.3442 19.8996 19.3522V20.0002C19.8116 20.0082 19.7356 20.0162 19.6716 20.0242C19.6076 20.0322 19.5596 20.0322 19.5276 20.0242C19.3276 20.0162 19.1756 19.9522 19.0716 19.8322C18.9676 19.7122 18.9116 19.5842 18.9036 19.4482L18.8916 18.9922C18.6116 19.3522 18.2476 19.6322 17.7996 19.8322C17.3516 20.0242 16.8956 20.1202 16.4316 20.1202C16.0316 20.1202 15.6676 20.0362 15.3396 19.8682C15.0196 19.6922 14.7676 19.4602 14.5836 19.1722C14.4076 18.8762 14.3196 18.5522 14.3196 18.2002ZM18.5076 18.6802C18.5956 18.5682 18.6636 18.4602 18.7116 18.3562C18.7596 18.2522 18.7836 18.1602 18.7836 18.0802V17.1682C18.5116 17.0642 18.2276 16.9842 17.9316 16.9282C17.6436 16.8722 17.3516 16.8442 17.0556 16.8442C16.4716 16.8442 15.9996 16.9602 15.6396 17.1922C15.2796 17.4242 15.0996 17.7402 15.0996 18.1402C15.0996 18.3722 15.1596 18.5922 15.2796 18.8002C15.3996 19.0002 15.5756 19.1682 15.8076 19.3042C16.0396 19.4322 16.3116 19.4962 16.6236 19.4962C17.0156 19.4962 17.3796 19.4202 17.7156 19.2682C18.0596 19.1162 18.3236 18.9202 18.5076 18.6802ZM23.2752 20.0002L20.7432 13.7482H21.5952L23.7312 19.1842L25.8792 13.7482H26.6832L24.1512 20.0002H23.2752ZM27.3972 18.2002C27.3972 17.8082 27.5092 17.4722 27.7332 17.1922C27.9572 16.9042 28.2652 16.6842 28.6572 16.5322C29.0572 16.3722 29.5172 16.2922 30.0372 16.2922C30.3412 16.2922 30.6572 16.3162 30.9852 16.3642C31.3132 16.4122 31.6052 16.4842 31.8612 16.5802V16.0522C31.8612 15.5242 31.7052 15.1042 31.3932 14.7922C31.0812 14.4802 30.6492 14.3242 30.0972 14.3242C29.7612 14.3242 29.4292 14.3882 29.1012 14.5162C28.7812 14.6362 28.4452 14.8162 28.0932 15.0562L27.7812 14.4802C28.1892 14.2002 28.5892 13.9922 28.9812 13.8562C29.3732 13.7122 29.7732 13.6402 30.1812 13.6402C30.9492 13.6402 31.5572 13.8602 32.0052 14.3002C32.4532 14.7402 32.6772 15.3482 32.6772 16.1242V19.0162C32.6772 19.1282 32.7012 19.2122 32.7492 19.2682C32.7972 19.3162 32.8732 19.3442 32.9772 19.3522V20.0002C32.8892 20.0082 32.8132 20.0162 32.7492 20.0242C32.6852 20.0322 32.6372 20.0322 32.6052 20.0242C32.4052 20.0162 32.2532 19.9522 32.1492 19.8322C32.0452 19.7122 31.9892 19.5842 31.9812 19.4482L31.9692 18.9922C31.6892 19.3522 31.3252 19.6322 30.8772 19.8322C30.4292 20.0242 29.9732 20.1202 29.5092 20.1202C29.1092 20.1202 28.7452 20.0362 28.4172 19.8682C28.0972 19.6922 27.8452 19.4602 27.6612 19.1722C27.4852 18.8762 27.3972 18.5522 27.3972 18.2002ZM31.5852 18.6802C31.6732 18.5682 31.7412 18.4602 31.7892 18.3562C31.8372 18.2522 31.8612 18.1602 31.8612 18.0802V17.1682C31.5892 17.0642 31.3052 16.9842 31.0092 16.9282C30.7212 16.8722 30.4292 16.8442 30.1332 16.8442C29.5492 16.8442 29.0772 16.9602 28.7172 17.1922C28.3572 17.4242 28.1772 17.7402 28.1772 18.1402C28.1772 18.3722 28.2372 18.5922 28.3572 18.8002C28.4772 19.0002 28.6532 19.1682 28.8852 19.3042C29.1172 19.4322 29.3892 19.4962 29.7012 19.4962C30.0932 19.4962 30.4572 19.4202 30.7932 19.2682C31.1372 19.1162 31.4012 18.9202 31.5852 18.6802ZM39.8283 13.0762C39.7083 12.9402 39.5683 12.8202 39.4083 12.7162C39.2483 12.6042 39.0683 12.5082 38.8683 12.4282C38.6683 12.3482 38.4523 12.2842 38.2203 12.2362C37.9963 12.1882 37.7563 12.1642 37.5003 12.1642C36.7563 12.1642 36.2083 12.3082 35.8563 12.5962C35.5123 12.8762 35.3403 13.2602 35.3403 13.7482C35.3403 14.0842 35.4203 14.3482 35.5803 14.5402C35.7483 14.7322 36.0083 14.8882 36.3603 15.0082C36.7123 15.1282 37.1603 15.2522 37.7043 15.3802C38.3123 15.5082 38.8363 15.6602 39.2763 15.8362C39.7163 16.0122 40.0563 16.2522 40.2963 16.5562C40.5363 16.8522 40.6563 17.2562 40.6563 17.7682C40.6563 18.1602 40.5803 18.5002 40.4283 18.7882C40.2763 19.0762 40.0643 19.3162 39.7923 19.5082C39.5203 19.7002 39.1963 19.8442 38.8203 19.9402C38.4443 20.0282 38.0323 20.0722 37.5843 20.0722C37.1443 20.0722 36.7203 20.0282 36.3123 19.9402C35.9123 19.8442 35.5323 19.7082 35.1723 19.5322C34.8123 19.3482 34.4763 19.1162 34.1643 18.8362L34.5843 18.1522C34.7363 18.3122 34.9163 18.4642 35.1243 18.6082C35.3403 18.7442 35.5763 18.8682 35.8323 18.9802C36.0963 19.0922 36.3763 19.1802 36.6723 19.2442C36.9763 19.3002 37.2883 19.3282 37.6083 19.3282C38.2883 19.3282 38.8163 19.2042 39.1923 18.9562C39.5763 18.7082 39.7683 18.3402 39.7683 17.8522C39.7683 17.5002 39.6723 17.2202 39.4803 17.0122C39.2883 16.7962 39.0003 16.6202 38.6163 16.4842C38.2323 16.3482 37.7603 16.2162 37.2003 16.0882C36.6083 15.9522 36.1083 15.8002 35.7003 15.6322C35.2923 15.4642 34.9843 15.2442 34.7763 14.9722C34.5763 14.6922 34.4763 14.3242 34.4763 13.8682C34.4763 13.3402 34.6043 12.8962 34.8603 12.5362C35.1243 12.1682 35.4843 11.8922 35.9403 11.7082C36.3963 11.5162 36.9203 11.4202 37.5123 11.4202C37.8883 11.4202 38.2363 11.4602 38.5563 11.5402C38.8843 11.6122 39.1843 11.7202 39.4563 11.8642C39.7363 12.0082 39.9963 12.1882 40.2363 12.4042L39.8283 13.0762ZM44.9214 20.1202C44.4654 20.1202 44.0454 20.0362 43.6614 19.8682C43.2854 19.6922 42.9534 19.4522 42.6654 19.1482C42.3854 18.8442 42.1654 18.4962 42.0054 18.1042C41.8534 17.7122 41.7774 17.2962 41.7774 16.8562C41.7774 16.2642 41.9094 15.7242 42.1734 15.2362C42.4374 14.7482 42.8054 14.3602 43.2774 14.0722C43.7494 13.7842 44.2934 13.6402 44.9094 13.6402C45.4934 13.6402 46.0094 13.7762 46.4574 14.0482C46.9054 14.3122 47.2374 14.6722 47.4534 15.1282L46.6614 15.3802C46.4854 15.0602 46.2374 14.8122 45.9174 14.6362C45.6054 14.4522 45.2574 14.3602 44.8734 14.3602C44.4574 14.3602 44.0774 14.4682 43.7334 14.6842C43.3894 14.9002 43.1134 15.1962 42.9054 15.5722C42.7054 15.9482 42.6054 16.3762 42.6054 16.8562C42.6054 17.3282 42.7094 17.7562 42.9174 18.1402C43.1254 18.5242 43.4014 18.8322 43.7454 19.0642C44.0894 19.2882 44.4694 19.4002 44.8854 19.4002C45.1574 19.4002 45.4174 19.3522 45.6654 19.2562C45.9214 19.1602 46.1414 19.0322 46.3254 18.8722C46.5174 18.7042 46.6454 18.5242 46.7094 18.3322L47.5134 18.5722C47.4014 18.8682 47.2134 19.1362 46.9494 19.3762C46.6934 19.6082 46.3894 19.7922 46.0374 19.9282C45.6934 20.0562 45.3214 20.1202 44.9214 20.1202ZM52.1553 14.4682C51.6113 14.4842 51.1313 14.6362 50.7153 14.9242C50.3073 15.2122 50.0193 15.6082 49.8513 16.1122V20.0002H49.0353V13.7482H49.8033V15.2482C50.0193 14.8082 50.3033 14.4522 50.6553 14.1802C51.0153 13.9082 51.3953 13.7562 51.7953 13.7242C51.8753 13.7162 51.9433 13.7122 51.9993 13.7122C52.0633 13.7122 52.1153 13.7162 52.1553 13.7242V14.4682ZM53.4823 20.0002V13.7482H54.2983V20.0002H53.4823ZM53.4823 12.4402V11.2402H54.2983V12.4402H53.4823ZM59.5276 20.1202C59.0076 20.1202 58.5396 19.9842 58.1236 19.7122C57.7156 19.4402 57.3916 19.1042 57.1516 18.7042V22.5562H56.3356V13.7482H57.0676V14.9602C57.3156 14.5682 57.6476 14.2522 58.0636 14.0122C58.4796 13.7642 58.9236 13.6402 59.3956 13.6402C59.8276 13.6402 60.2236 13.7322 60.5836 13.9162C60.9436 14.0922 61.2556 14.3322 61.5196 14.6362C61.7836 14.9402 61.9876 15.2882 62.1316 15.6802C62.2836 16.0642 62.3596 16.4642 62.3596 16.8802C62.3596 17.4642 62.2396 18.0042 61.9996 18.5002C61.7676 18.9882 61.4396 19.3802 61.0156 19.6762C60.5916 19.9722 60.0956 20.1202 59.5276 20.1202ZM59.2996 19.4002C59.6436 19.4002 59.9516 19.3322 60.2236 19.1962C60.4956 19.0522 60.7276 18.8602 60.9196 18.6202C61.1196 18.3802 61.2716 18.1122 61.3756 17.8162C61.4796 17.5122 61.5316 17.2002 61.5316 16.8802C61.5316 16.5442 61.4716 16.2242 61.3516 15.9202C61.2396 15.6162 61.0756 15.3482 60.8596 15.1162C60.6436 14.8842 60.3956 14.7002 60.1156 14.5642C59.8356 14.4282 59.5316 14.3602 59.2036 14.3602C58.9956 14.3602 58.7796 14.4002 58.5556 14.4802C58.3316 14.5602 58.1156 14.6762 57.9076 14.8282C57.7076 14.9722 57.5396 15.1362 57.4036 15.3202C57.2676 15.5042 57.1836 15.7002 57.1516 15.9082V17.8282C57.2796 18.1242 57.4516 18.3922 57.6676 18.6322C57.8836 18.8642 58.1316 19.0522 58.4116 19.1962C58.6996 19.3322 58.9956 19.4002 59.2996 19.4002ZM66.8881 19.7002C66.8241 19.7242 66.7241 19.7682 66.5881 19.8322C66.4521 19.8962 66.2881 19.9522 66.0961 20.0002C65.9041 20.0482 65.6961 20.0722 65.4721 20.0722C65.2401 20.0722 65.0201 20.0282 64.8121 19.9402C64.6121 19.8522 64.4521 19.7202 64.3321 19.5442C64.2121 19.3602 64.1521 19.1362 64.1521 18.8722V14.3962H63.2881V13.7482H64.1521V11.6362H64.9681V13.7482H66.4081V14.3962H64.9681V18.6442C64.9841 18.8682 65.0641 19.0362 65.2081 19.1482C65.3601 19.2602 65.5321 19.3162 65.7241 19.3162C65.9481 19.3162 66.1521 19.2802 66.3361 19.2082C66.5201 19.1282 66.6321 19.0722 66.6721 19.0402L66.8881 19.7002Z" fill="black"/>
</g>
<defs>
<clipPath id="clip0_261_56">
<rect width="76" height="32" fill="white"/>
</clipPath>
</defs>
</svg>
