<svg width="70" height="62" viewBox="0 0 70 62" fill="none" xmlns="http://www.w3.org/2000/svg">
<g clip-path="url(#clip0_230_23)">
<path d="M61.3122 0H8.39355C3.82696 0 0.125 3.70196 0.125 8.26855V52.9196C0.125 57.4861 3.82696 61.1881 8.39355 61.1881H61.3122C65.8788 61.1881 69.5808 57.4861 69.5808 52.9196V8.26855C69.5808 3.70196 65.8788 0 61.3122 0Z" fill="#F2F7FC"/>
<path d="M36.5056 20.6719H33.1982C28.6316 20.6719 24.9297 24.3738 24.9297 28.9404V32.2486C24.9297 36.8152 28.6316 40.5172 33.1982 40.5172H36.5056C41.0722 40.5172 44.7742 36.8152 44.7742 32.2486V28.9404C44.7742 24.3738 41.0722 20.6719 36.5056 20.6719Z" fill="#F2F7FC"/>
<path d="M29.8895 24.8069C29.8892 25.2455 29.7148 25.666 29.4045 25.976C29.0942 26.286 28.6735 26.46 28.2349 26.4598C27.7963 26.4595 27.3758 26.2851 27.0658 25.9748C26.7558 25.6645 26.5818 25.2438 26.582 24.8052C26.5823 24.3666 26.7567 23.9461 27.067 23.6361C27.3773 23.3261 27.798 23.1521 28.2366 23.1523C28.6752 23.1526 29.0957 23.327 29.4057 23.6373C29.7157 23.9476 29.8897 24.3683 29.8895 24.8069ZM29.9391 27.6843H26.6316V38.0366H29.9391V27.6843ZM35.1648 27.6843H31.8739V38.0366H35.1317V32.6041C35.1317 29.5778 39.0758 29.2967 39.0758 32.6041V38.0366H42.3419V31.4796C42.3419 26.3779 36.5043 26.5681 35.1317 29.0735L35.1648 27.6843Z" fill="#0077B5"/>
</g>
<defs>
<clipPath id="clip0_230_23">
<rect width="70" height="62" fill="white"/>
</clipPath>
</defs>
</svg>
