<svg width="44" height="44" viewBox="0 0 44 44" fill="none" xmlns="http://www.w3.org/2000/svg">
<g clip-path="url(#clip0_233_81)">
<path d="M8.5 0H36C40.4183 0 44 3.58172 44 8V35.499C44 39.9173 40.4183 43.499 36 43.499H8.5C4.08172 43.499 0.5 39.9173 0.5 35.499V8C0.5 3.58172 4.08172 0 8.5 0Z" fill="#F2F7FC"/>
<path d="M18.7685 10H25.7315C30.298 10 34 13.702 34 18.2685V25.2304C34 29.797 30.298 33.499 25.7315 33.499H18.7685C14.202 33.499 10.5 29.797 10.5 25.2304V18.2685C10.5 13.702 14.202 10 18.7685 10Z" fill="#F2F7FC"/>
<path d="M22.25 12C25.9766 12 29 14.8777 29 18.4219C29 22.5 24.5 28.9627 22.8477 31.1948C22.7791 31.2891 22.6892 31.3657 22.5853 31.4186C22.4814 31.4715 22.3665 31.499 22.25 31.499C22.1335 31.499 22.0186 31.4715 21.9147 31.4186C21.8108 31.3657 21.7209 31.2891 21.6523 31.1948C20 28.9636 15.5 22.5033 15.5 18.4219C15.5 14.8777 18.5234 12 22.25 12Z" stroke="#E80505" stroke-width="1.5" stroke-linecap="round" stroke-linejoin="round"/>
<path d="M22.25 21.0154C21.0332 21.0154 20.0469 20.0291 20.0469 18.8124C20.0469 17.5957 21.0332 16.6094 22.25 16.6094C23.4668 16.6094 24.4531 17.5957 24.4531 18.8124C24.4531 20.0291 23.4668 21.0154 22.25 21.0154Z" stroke="#E80505" stroke-width="1.5" stroke-linecap="round" stroke-linejoin="round"/>
</g>
<defs>
<clipPath id="clip0_233_81">
<rect width="44" height="44" fill="white"/>
</clipPath>
</defs>
</svg>
