<svg width="44" height="42" viewBox="0 0 44 42" fill="none" xmlns="http://www.w3.org/2000/svg">
<g clip-path="url(#clip0_233_76)">
<path d="M8 0H36C40.4183 0 44 3.58172 44 8V33.36C44 37.7783 40.4183 41.36 36 41.36H8C3.58172 41.36 0 37.7783 0 33.36V8C0 3.58172 3.58172 0 8 0Z" fill="#F2F7FC"/>
<path d="M18.2685 10H25.7315C30.298 10 34 13.702 34 18.2685V23.0914C34 27.658 30.298 31.36 25.7315 31.36H18.2685C13.702 31.36 10 27.658 10 23.0914V18.2685C10 13.702 13.702 10 18.2685 10Z" fill="#F2F7FC"/>
<path d="M12.97 16.65L22 11L31.03 16.65C31.61 17 32 17.63 32 18.36V28.36C32 29.46 31.1 30.36 30 30.36H14C12.9 30.36 12 29.46 12 28.36V18.36C12 17.63 12.39 17 12.97 16.65ZM14 28.36H30V20.36L22 25.36L14 20.36V28.36ZM22 23.36L30 18.36L22 13.36L14 18.36L22 23.36Z" fill="#FF9C1B"/>
</g>
<defs>
<clipPath id="clip0_233_76">
<rect width="44" height="42" fill="white"/>
</clipPath>
</defs>
</svg>
