<svg width="60" height="32" viewBox="0 0 60 32" fill="none" xmlns="http://www.w3.org/2000/svg">
<g clip-path="url(#clip0_261_28)">
<path d="M52 0H8C3.58172 0 0 3.58172 0 8V24C0 28.4183 3.58172 32 8 32H52C56.4183 32 60 28.4183 60 24V8C60 3.58172 56.4183 0 52 0Z" fill="#E1E8EF"/>
<path d="M9.90641 13.0282V20.0002H9.06641V11.4802H9.76241L15.3544 18.5842V11.4922H16.1944V20.0002H15.4144L9.90641 13.0282ZM20.9782 20.1202C20.5302 20.1202 20.1142 20.0362 19.7302 19.8682C19.3542 19.6922 19.0262 19.4562 18.7462 19.1602C18.4742 18.8562 18.2622 18.5122 18.1102 18.1282C17.9582 17.7362 17.8822 17.3242 17.8822 16.8922C17.8822 16.4442 17.9582 16.0282 18.1102 15.6442C18.2622 15.2522 18.4782 14.9082 18.7582 14.6122C19.0382 14.3082 19.3662 14.0722 19.7422 13.9042C20.1262 13.7282 20.5422 13.6402 20.9902 13.6402C21.4382 13.6402 21.8502 13.7282 22.2262 13.9042C22.6022 14.0722 22.9302 14.3082 23.2102 14.6122C23.4902 14.9082 23.7062 15.2522 23.8582 15.6442C24.0102 16.0282 24.0862 16.4442 24.0862 16.8922C24.0862 17.3242 24.0102 17.7362 23.8582 18.1282C23.7062 18.5122 23.4902 18.8562 23.2102 19.1602C22.9382 19.4562 22.6102 19.6922 22.2262 19.8682C21.8502 20.0362 21.4342 20.1202 20.9782 20.1202ZM18.7102 16.9042C18.7102 17.3682 18.8102 17.7922 19.0102 18.1762C19.2182 18.5522 19.4942 18.8522 19.8382 19.0762C20.1822 19.2922 20.5622 19.4002 20.9782 19.4002C21.3942 19.4002 21.7742 19.2882 22.1182 19.0642C22.4622 18.8402 22.7382 18.5362 22.9462 18.1522C23.1542 17.7602 23.2582 17.3362 23.2582 16.8802C23.2582 16.4162 23.1542 15.9922 22.9462 15.6082C22.7382 15.2242 22.4622 14.9202 22.1182 14.6962C21.7742 14.4722 21.3942 14.3602 20.9782 14.3602C20.5622 14.3602 20.1822 14.4762 19.8382 14.7082C19.5022 14.9402 19.2302 15.2482 19.0222 15.6322C18.8142 16.0082 18.7102 16.4322 18.7102 16.9042ZM25.2709 16.8922C25.2709 16.3002 25.3909 15.7602 25.6309 15.2722C25.8789 14.7762 26.2189 14.3802 26.6509 14.0842C27.0829 13.7882 27.5749 13.6402 28.1269 13.6402C28.6469 13.6402 29.1109 13.7802 29.5189 14.0602C29.9349 14.3322 30.2589 14.6642 30.4909 15.0562V11.2402H31.3069V19.0162C31.3069 19.1282 31.3309 19.2122 31.3789 19.2682C31.4269 19.3162 31.4989 19.3442 31.5949 19.3522V20.0002C31.4349 20.0242 31.3109 20.0322 31.2229 20.0242C31.0549 20.0162 30.9069 19.9482 30.7789 19.8202C30.6509 19.6922 30.5869 19.5522 30.5869 19.4002V18.7882C30.3389 19.1962 30.0029 19.5202 29.5789 19.7602C29.1549 20.0002 28.7149 20.1202 28.2589 20.1202C27.8269 20.1202 27.4269 20.0322 27.0589 19.8562C26.6989 19.6802 26.3829 19.4402 26.1109 19.1362C25.8469 18.8322 25.6389 18.4882 25.4869 18.1042C25.3429 17.7122 25.2709 17.3082 25.2709 16.8922ZM30.4909 17.8522V15.9202C30.3869 15.6322 30.2189 15.3722 29.9869 15.1402C29.7549 14.9002 29.4909 14.7122 29.1949 14.5762C28.9069 14.4322 28.6189 14.3602 28.3309 14.3602C27.9949 14.3602 27.6909 14.4322 27.4189 14.5762C27.1469 14.7122 26.9109 14.9002 26.7109 15.1402C26.5189 15.3802 26.3709 15.6522 26.2669 15.9562C26.1629 16.2602 26.1109 16.5722 26.1109 16.8922C26.1109 17.2282 26.1669 17.5482 26.2789 17.8522C26.3989 18.1562 26.5669 18.4282 26.7829 18.6682C26.9989 18.9002 27.2469 19.0802 27.5269 19.2082C27.8069 19.3362 28.1109 19.4002 28.4389 19.4002C28.6469 19.4002 28.8629 19.3602 29.0869 19.2802C29.3109 19.2002 29.5229 19.0922 29.7229 18.9562C29.9309 18.8122 30.1029 18.6442 30.2389 18.4522C30.3749 18.2602 30.4589 18.0602 30.4909 17.8522ZM36.0957 20.1202C35.6477 20.1202 35.2317 20.0362 34.8477 19.8682C34.4637 19.6922 34.1317 19.4562 33.8517 19.1602C33.5717 18.8562 33.3517 18.5082 33.1917 18.1162C33.0397 17.7242 32.9637 17.3042 32.9637 16.8562C32.9637 16.2722 33.0957 15.7362 33.3597 15.2482C33.6317 14.7602 34.0037 14.3722 34.4757 14.0842C34.9477 13.7882 35.4837 13.6402 36.0837 13.6402C36.6997 13.6402 37.2357 13.7882 37.6917 14.0842C38.1557 14.3802 38.5197 14.7722 38.7837 15.2602C39.0477 15.7402 39.1797 16.2682 39.1797 16.8442C39.1797 16.9082 39.1797 16.9722 39.1797 17.0362C39.1797 17.0922 39.1757 17.1362 39.1677 17.1682H33.8157C33.8557 17.6162 33.9797 18.0162 34.1877 18.3682C34.4037 18.7122 34.6797 18.9882 35.0157 19.1962C35.3597 19.3962 35.7317 19.4962 36.1317 19.4962C36.5397 19.4962 36.9237 19.3922 37.2837 19.1842C37.6517 18.9762 37.9077 18.7042 38.0517 18.3682L38.7597 18.5602C38.6317 18.8562 38.4357 19.1242 38.1717 19.3642C37.9077 19.6042 37.5957 19.7922 37.2357 19.9282C36.8837 20.0562 36.5037 20.1202 36.0957 20.1202ZM33.7917 16.5802H38.4117C38.3797 16.1242 38.2557 15.7242 38.0397 15.3802C37.8317 15.0362 37.5557 14.7682 37.2117 14.5762C36.8757 14.3762 36.5037 14.2762 36.0957 14.2762C35.6877 14.2762 35.3157 14.3762 34.9797 14.5762C34.6437 14.7682 34.3677 15.0402 34.1517 15.3922C33.9437 15.7362 33.8237 16.1322 33.7917 16.5802ZM40.5587 20.0002V18.8242H41.2667V20.0002H40.5587ZM42.2562 22.1722C41.9922 22.1722 41.7442 22.1362 41.5122 22.0642C41.2722 21.9922 41.0642 21.8722 40.8882 21.7042L41.2842 21.1522C41.4042 21.2642 41.5442 21.3402 41.7042 21.3802C41.8562 21.4202 42.0082 21.4402 42.1602 21.4402C42.3522 21.4402 42.5322 21.3922 42.7002 21.2962C42.8682 21.2002 43.0042 21.0642 43.1082 20.8882C43.2202 20.7202 43.2762 20.5322 43.2762 20.3242V13.7482H44.0922V20.2762C44.0922 20.6442 44.0042 20.9722 43.8282 21.2602C43.6522 21.5482 43.4242 21.7722 43.1442 21.9322C42.8642 22.0922 42.5682 22.1722 42.2562 22.1722ZM43.2762 12.4402V11.2402H44.0922V12.4402H43.2762ZM48.1795 20.1202C47.6675 20.1202 47.1915 20.0362 46.7515 19.8682C46.3115 19.7002 45.9315 19.4442 45.6115 19.1002L45.9475 18.5242C46.2995 18.8522 46.6515 19.0922 47.0035 19.2442C47.3635 19.3882 47.7435 19.4602 48.1435 19.4602C48.6315 19.4602 49.0275 19.3642 49.3315 19.1722C49.6355 18.9722 49.7875 18.6882 49.7875 18.3202C49.7875 18.0722 49.7115 17.8842 49.5595 17.7562C49.4155 17.6202 49.2035 17.5122 48.9235 17.4322C48.6515 17.3442 48.3235 17.2522 47.9395 17.1562C47.5075 17.0362 47.1435 16.9122 46.8475 16.7842C46.5595 16.6482 46.3395 16.4802 46.1875 16.2802C46.0435 16.0722 45.9715 15.8042 45.9715 15.4762C45.9715 15.0682 46.0715 14.7322 46.2715 14.4682C46.4795 14.1962 46.7595 13.9922 47.1115 13.8562C47.4715 13.7122 47.8715 13.6402 48.3115 13.6402C48.7915 13.6402 49.2155 13.7162 49.5835 13.8682C49.9515 14.0202 50.2515 14.2322 50.4835 14.5042L50.0875 15.0562C49.8635 14.8002 49.5955 14.6122 49.2835 14.4922C48.9795 14.3642 48.6395 14.3002 48.2635 14.3002C48.0075 14.3002 47.7635 14.3362 47.5315 14.4082C47.2995 14.4722 47.1075 14.5842 46.9555 14.7442C46.8115 14.8962 46.7395 15.1082 46.7395 15.3802C46.7395 15.6042 46.7955 15.7802 46.9075 15.9082C47.0195 16.0282 47.1875 16.1322 47.4115 16.2202C47.6355 16.3002 47.9115 16.3882 48.2395 16.4842C48.7115 16.6122 49.1235 16.7442 49.4755 16.8802C49.8275 17.0082 50.0995 17.1762 50.2915 17.3842C50.4835 17.5922 50.5795 17.8842 50.5795 18.2602C50.5795 18.8442 50.3595 19.3002 49.9195 19.6282C49.4795 19.9562 48.8995 20.1202 48.1795 20.1202Z" fill="black"/>
</g>
<defs>
<clipPath id="clip0_261_28">
<rect width="60" height="32" fill="white"/>
</clipPath>
</defs>
</svg>
