<svg width="61" height="32" viewBox="0 0 61 32" fill="none" xmlns="http://www.w3.org/2000/svg">
<g clip-path="url(#clip0_261_32)">
<path d="M53 0H8C3.58172 0 0 3.58172 0 8V24C0 28.4183 3.58172 32 8 32H53C57.4183 32 61 28.4183 61 24V8C61 3.58172 57.4183 0 53 0Z" fill="#E1E8EF"/>
<path d="M9.06641 20.0002V11.4802H12.6664C13.0344 11.4802 13.3704 11.5562 13.6744 11.7082C13.9784 11.8602 14.2424 12.0682 14.4664 12.3322C14.6984 12.5882 14.8744 12.8762 14.9944 13.1962C15.1224 13.5082 15.1864 13.8282 15.1864 14.1562C15.1864 14.5642 15.1064 14.9482 14.9464 15.3082C14.7944 15.6682 14.5744 15.9722 14.2864 16.2202C14.0064 16.4682 13.6744 16.6322 13.2904 16.7122L15.3784 20.0002H14.4304L12.4264 16.8562H9.90641V20.0002H9.06641ZM9.90641 16.1122H12.6904C13.0264 16.1122 13.3184 16.0202 13.5664 15.8362C13.8144 15.6522 14.0064 15.4122 14.1424 15.1162C14.2784 14.8122 14.3464 14.4922 14.3464 14.1562C14.3464 13.8122 14.2664 13.4962 14.1064 13.2082C13.9544 12.9122 13.7464 12.6762 13.4824 12.5002C13.2264 12.3162 12.9384 12.2242 12.6184 12.2242H9.90641V16.1122ZM19.4907 20.1202C19.0427 20.1202 18.6267 20.0362 18.2427 19.8682C17.8587 19.6922 17.5267 19.4562 17.2467 19.1602C16.9667 18.8562 16.7467 18.5082 16.5867 18.1162C16.4347 17.7242 16.3587 17.3042 16.3587 16.8562C16.3587 16.2722 16.4907 15.7362 16.7547 15.2482C17.0267 14.7602 17.3987 14.3722 17.8707 14.0842C18.3427 13.7882 18.8787 13.6402 19.4787 13.6402C20.0947 13.6402 20.6307 13.7882 21.0867 14.0842C21.5507 14.3802 21.9147 14.7722 22.1787 15.2602C22.4427 15.7402 22.5747 16.2682 22.5747 16.8442C22.5747 16.9082 22.5747 16.9722 22.5747 17.0362C22.5747 17.0922 22.5707 17.1362 22.5627 17.1682H17.2107C17.2507 17.6162 17.3747 18.0162 17.5827 18.3682C17.7987 18.7122 18.0747 18.9882 18.4107 19.1962C18.7547 19.3962 19.1267 19.4962 19.5267 19.4962C19.9347 19.4962 20.3187 19.3922 20.6787 19.1842C21.0467 18.9762 21.3027 18.7042 21.4467 18.3682L22.1547 18.5602C22.0267 18.8562 21.8307 19.1242 21.5667 19.3642C21.3027 19.6042 20.9907 19.7922 20.6307 19.9282C20.2787 20.0562 19.8987 20.1202 19.4907 20.1202ZM17.1867 16.5802H21.8067C21.7747 16.1242 21.6507 15.7242 21.4347 15.3802C21.2267 15.0362 20.9507 14.7682 20.6067 14.5762C20.2707 14.3762 19.8987 14.2762 19.4907 14.2762C19.0827 14.2762 18.7107 14.3762 18.3747 14.5762C18.0387 14.7682 17.7627 15.0402 17.5467 15.3922C17.3387 15.7362 17.2187 16.1322 17.1867 16.5802ZM23.5697 18.2002C23.5697 17.8082 23.6817 17.4722 23.9057 17.1922C24.1297 16.9042 24.4377 16.6842 24.8297 16.5322C25.2297 16.3722 25.6897 16.2922 26.2097 16.2922C26.5137 16.2922 26.8297 16.3162 27.1577 16.3642C27.4857 16.4122 27.7777 16.4842 28.0337 16.5802V16.0522C28.0337 15.5242 27.8777 15.1042 27.5657 14.7922C27.2537 14.4802 26.8217 14.3242 26.2697 14.3242C25.9337 14.3242 25.6017 14.3882 25.2737 14.5162C24.9537 14.6362 24.6177 14.8162 24.2657 15.0562L23.9537 14.4802C24.3617 14.2002 24.7617 13.9922 25.1537 13.8562C25.5457 13.7122 25.9457 13.6402 26.3537 13.6402C27.1217 13.6402 27.7297 13.8602 28.1777 14.3002C28.6257 14.7402 28.8497 15.3482 28.8497 16.1242V19.0162C28.8497 19.1282 28.8737 19.2122 28.9217 19.2682C28.9697 19.3162 29.0457 19.3442 29.1497 19.3522V20.0002C29.0617 20.0082 28.9857 20.0162 28.9217 20.0242C28.8577 20.0322 28.8097 20.0322 28.7777 20.0242C28.5777 20.0162 28.4257 19.9522 28.3217 19.8322C28.2177 19.7122 28.1617 19.5842 28.1537 19.4482L28.1417 18.9922C27.8617 19.3522 27.4977 19.6322 27.0497 19.8322C26.6017 20.0242 26.1457 20.1202 25.6817 20.1202C25.2817 20.1202 24.9177 20.0362 24.5897 19.8682C24.2697 19.6922 24.0177 19.4602 23.8337 19.1722C23.6577 18.8762 23.5697 18.5522 23.5697 18.2002ZM27.7577 18.6802C27.8457 18.5682 27.9137 18.4602 27.9617 18.3562C28.0097 18.2522 28.0337 18.1602 28.0337 18.0802V17.1682C27.7617 17.0642 27.4777 16.9842 27.1817 16.9282C26.8937 16.8722 26.6017 16.8442 26.3057 16.8442C25.7217 16.8442 25.2497 16.9602 24.8897 17.1922C24.5297 17.4242 24.3497 17.7402 24.3497 18.1402C24.3497 18.3722 24.4097 18.5922 24.5297 18.8002C24.6497 19.0002 24.8257 19.1682 25.0577 19.3042C25.2897 19.4322 25.5617 19.4962 25.8737 19.4962C26.2657 19.4962 26.6297 19.4202 26.9657 19.2682C27.3097 19.1162 27.5737 18.9202 27.7577 18.6802ZM33.5648 20.1202C33.1088 20.1202 32.6888 20.0362 32.3048 19.8682C31.9288 19.6922 31.5968 19.4522 31.3088 19.1482C31.0288 18.8442 30.8088 18.4962 30.6488 18.1042C30.4968 17.7122 30.4208 17.2962 30.4208 16.8562C30.4208 16.2642 30.5528 15.7242 30.8168 15.2362C31.0808 14.7482 31.4488 14.3602 31.9208 14.0722C32.3928 13.7842 32.9368 13.6402 33.5528 13.6402C34.1368 13.6402 34.6528 13.7762 35.1008 14.0482C35.5488 14.3122 35.8808 14.6722 36.0968 15.1282L35.3048 15.3802C35.1288 15.0602 34.8808 14.8122 34.5608 14.6362C34.2488 14.4522 33.9008 14.3602 33.5168 14.3602C33.1008 14.3602 32.7208 14.4682 32.3768 14.6842C32.0328 14.9002 31.7568 15.1962 31.5488 15.5722C31.3488 15.9482 31.2488 16.3762 31.2488 16.8562C31.2488 17.3282 31.3528 17.7562 31.5608 18.1402C31.7688 18.5242 32.0448 18.8322 32.3888 19.0642C32.7328 19.2882 33.1128 19.4002 33.5288 19.4002C33.8008 19.4002 34.0608 19.3522 34.3088 19.2562C34.5648 19.1602 34.7848 19.0322 34.9688 18.8722C35.1608 18.7042 35.2888 18.5242 35.3528 18.3322L36.1568 18.5722C36.0448 18.8682 35.8568 19.1362 35.5928 19.3762C35.3368 19.6082 35.0328 19.7922 34.6808 19.9282C34.3368 20.0562 33.9648 20.1202 33.5648 20.1202ZM40.6787 19.7002C40.6147 19.7242 40.5147 19.7682 40.3787 19.8322C40.2427 19.8962 40.0787 19.9522 39.8867 20.0002C39.6947 20.0482 39.4867 20.0722 39.2627 20.0722C39.0307 20.0722 38.8107 20.0282 38.6027 19.9402C38.4027 19.8522 38.2427 19.7202 38.1227 19.5442C38.0027 19.3602 37.9427 19.1362 37.9427 18.8722V14.3962H37.0787V13.7482H37.9427V11.6362H38.7587V13.7482H40.1987V14.3962H38.7587V18.6442C38.7747 18.8682 38.8547 19.0362 38.9987 19.1482C39.1507 19.2602 39.3227 19.3162 39.5147 19.3162C39.7387 19.3162 39.9427 19.2802 40.1267 19.2082C40.3107 19.1282 40.4227 19.0722 40.4627 19.0402L40.6787 19.7002ZM41.8182 20.0002V18.8242H42.5262V20.0002H41.8182ZM43.5157 22.1722C43.2517 22.1722 43.0037 22.1362 42.7717 22.0642C42.5317 21.9922 42.3237 21.8722 42.1477 21.7042L42.5437 21.1522C42.6637 21.2642 42.8037 21.3402 42.9637 21.3802C43.1157 21.4202 43.2677 21.4402 43.4197 21.4402C43.6117 21.4402 43.7917 21.3922 43.9597 21.2962C44.1277 21.2002 44.2637 21.0642 44.3677 20.8882C44.4797 20.7202 44.5357 20.5322 44.5357 20.3242V13.7482H45.3517V20.2762C45.3517 20.6442 45.2637 20.9722 45.0877 21.2602C44.9117 21.5482 44.6837 21.7722 44.4037 21.9322C44.1237 22.0922 43.8277 22.1722 43.5157 22.1722ZM44.5357 12.4402V11.2402H45.3517V12.4402H44.5357ZM49.439 20.1202C48.927 20.1202 48.451 20.0362 48.011 19.8682C47.571 19.7002 47.191 19.4442 46.871 19.1002L47.207 18.5242C47.559 18.8522 47.911 19.0922 48.263 19.2442C48.623 19.3882 49.003 19.4602 49.403 19.4602C49.891 19.4602 50.287 19.3642 50.591 19.1722C50.895 18.9722 51.047 18.6882 51.047 18.3202C51.047 18.0722 50.971 17.8842 50.819 17.7562C50.675 17.6202 50.463 17.5122 50.183 17.4322C49.911 17.3442 49.583 17.2522 49.199 17.1562C48.767 17.0362 48.403 16.9122 48.107 16.7842C47.819 16.6482 47.599 16.4802 47.447 16.2802C47.303 16.0722 47.231 15.8042 47.231 15.4762C47.231 15.0682 47.331 14.7322 47.531 14.4682C47.739 14.1962 48.019 13.9922 48.371 13.8562C48.731 13.7122 49.131 13.6402 49.571 13.6402C50.051 13.6402 50.475 13.7162 50.843 13.8682C51.211 14.0202 51.511 14.2322 51.743 14.5042L51.347 15.0562C51.123 14.8002 50.855 14.6122 50.543 14.4922C50.239 14.3642 49.899 14.3002 49.523 14.3002C49.267 14.3002 49.023 14.3362 48.791 14.4082C48.559 14.4722 48.367 14.5842 48.215 14.7442C48.071 14.8962 47.999 15.1082 47.999 15.3802C47.999 15.6042 48.055 15.7802 48.167 15.9082C48.279 16.0282 48.447 16.1322 48.671 16.2202C48.895 16.3002 49.171 16.3882 49.499 16.4842C49.971 16.6122 50.383 16.7442 50.735 16.8802C51.087 17.0082 51.359 17.1762 51.551 17.3842C51.743 17.5922 51.839 17.8842 51.839 18.2602C51.839 18.8442 51.619 19.3002 51.179 19.6282C50.739 19.9562 50.159 20.1202 49.439 20.1202Z" fill="black"/>
</g>
<defs>
<clipPath id="clip0_261_32">
<rect width="61" height="32" fill="white"/>
</clipPath>
</defs>
</svg>
