<svg width="70" height="32" viewBox="0 0 70 32" fill="none" xmlns="http://www.w3.org/2000/svg">
<g clip-path="url(#clip0_264_82)">
<path d="M62 0H8C3.58172 0 0 3.58172 0 8V24C0 28.4183 3.58172 32 8 32H62C66.4183 32 70 28.4183 70 24V8C70 3.58172 66.4183 0 62 0Z" fill="#E1E8EF"/>
<path d="M9.06641 20.0002V11.4802H12.6664C13.0344 11.4802 13.3704 11.5562 13.6744 11.7082C13.9784 11.8602 14.2424 12.0682 14.4664 12.3322C14.6984 12.5882 14.8744 12.8762 14.9944 13.1962C15.1224 13.5082 15.1864 13.8282 15.1864 14.1562C15.1864 14.5642 15.1064 14.9482 14.9464 15.3082C14.7944 15.6682 14.5744 15.9722 14.2864 16.2202C14.0064 16.4682 13.6744 16.6322 13.2904 16.7122L15.3784 20.0002H14.4304L12.4264 16.8562H9.90641V20.0002H9.06641ZM9.90641 16.1122H12.6904C13.0264 16.1122 13.3184 16.0202 13.5664 15.8362C13.8144 15.6522 14.0064 15.4122 14.1424 15.1162C14.2784 14.8122 14.3464 14.4922 14.3464 14.1562C14.3464 13.8122 14.2664 13.4962 14.1064 13.2082C13.9544 12.9122 13.7464 12.6762 13.4824 12.5002C13.2264 12.3162 12.9384 12.2242 12.6184 12.2242H9.90641V16.1122ZM19.4907 20.1202C19.0427 20.1202 18.6267 20.0362 18.2427 19.8682C17.8587 19.6922 17.5267 19.4562 17.2467 19.1602C16.9667 18.8562 16.7467 18.5082 16.5867 18.1162C16.4347 17.7242 16.3587 17.3042 16.3587 16.8562C16.3587 16.2722 16.4907 15.7362 16.7547 15.2482C17.0267 14.7602 17.3987 14.3722 17.8707 14.0842C18.3427 13.7882 18.8787 13.6402 19.4787 13.6402C20.0947 13.6402 20.6307 13.7882 21.0867 14.0842C21.5507 14.3802 21.9147 14.7722 22.1787 15.2602C22.4427 15.7402 22.5747 16.2682 22.5747 16.8442C22.5747 16.9082 22.5747 16.9722 22.5747 17.0362C22.5747 17.0922 22.5707 17.1362 22.5627 17.1682H17.2107C17.2507 17.6162 17.3747 18.0162 17.5827 18.3682C17.7987 18.7122 18.0747 18.9882 18.4107 19.1962C18.7547 19.3962 19.1267 19.4962 19.5267 19.4962C19.9347 19.4962 20.3187 19.3922 20.6787 19.1842C21.0467 18.9762 21.3027 18.7042 21.4467 18.3682L22.1547 18.5602C22.0267 18.8562 21.8307 19.1242 21.5667 19.3642C21.3027 19.6042 20.9907 19.7922 20.6307 19.9282C20.2787 20.0562 19.8987 20.1202 19.4907 20.1202ZM17.1867 16.5802H21.8067C21.7747 16.1242 21.6507 15.7242 21.4347 15.3802C21.2267 15.0362 20.9507 14.7682 20.6067 14.5762C20.2707 14.3762 19.8987 14.2762 19.4907 14.2762C19.0827 14.2762 18.7107 14.3762 18.3747 14.5762C18.0387 14.7682 17.7627 15.0402 17.5467 15.3922C17.3387 15.7362 17.2187 16.1322 17.1867 16.5802ZM26.1257 20.1202C25.6137 20.1202 25.1377 20.0362 24.6977 19.8682C24.2577 19.7002 23.8777 19.4442 23.5577 19.1002L23.8937 18.5242C24.2457 18.8522 24.5977 19.0922 24.9497 19.2442C25.3097 19.3882 25.6897 19.4602 26.0897 19.4602C26.5777 19.4602 26.9737 19.3642 27.2777 19.1722C27.5817 18.9722 27.7337 18.6882 27.7337 18.3202C27.7337 18.0722 27.6577 17.8842 27.5057 17.7562C27.3617 17.6202 27.1497 17.5122 26.8697 17.4322C26.5977 17.3442 26.2697 17.2522 25.8857 17.1562C25.4537 17.0362 25.0897 16.9122 24.7937 16.7842C24.5057 16.6482 24.2857 16.4802 24.1337 16.2802C23.9897 16.0722 23.9177 15.8042 23.9177 15.4762C23.9177 15.0682 24.0177 14.7322 24.2177 14.4682C24.4257 14.1962 24.7057 13.9922 25.0577 13.8562C25.4177 13.7122 25.8177 13.6402 26.2577 13.6402C26.7377 13.6402 27.1617 13.7162 27.5297 13.8682C27.8977 14.0202 28.1977 14.2322 28.4297 14.5042L28.0337 15.0562C27.8097 14.8002 27.5417 14.6122 27.2297 14.4922C26.9257 14.3642 26.5857 14.3002 26.2097 14.3002C25.9537 14.3002 25.7097 14.3362 25.4777 14.4082C25.2457 14.4722 25.0537 14.5842 24.9017 14.7442C24.7577 14.8962 24.6857 15.1082 24.6857 15.3802C24.6857 15.6042 24.7417 15.7802 24.8537 15.9082C24.9657 16.0282 25.1337 16.1322 25.3577 16.2202C25.5817 16.3002 25.8577 16.3882 26.1857 16.4842C26.6577 16.6122 27.0697 16.7442 27.4217 16.8802C27.7737 17.0082 28.0457 17.1762 28.2377 17.3842C28.4297 17.5922 28.5257 17.8842 28.5257 18.2602C28.5257 18.8442 28.3057 19.3002 27.8657 19.6282C27.4257 19.9562 26.8457 20.1202 26.1257 20.1202ZM32.8145 20.1202C32.3665 20.1202 31.9505 20.0362 31.5665 19.8682C31.1825 19.6922 30.8505 19.4562 30.5705 19.1602C30.2905 18.8562 30.0705 18.5082 29.9105 18.1162C29.7585 17.7242 29.6825 17.3042 29.6825 16.8562C29.6825 16.2722 29.8145 15.7362 30.0785 15.2482C30.3505 14.7602 30.7225 14.3722 31.1945 14.0842C31.6665 13.7882 32.2025 13.6402 32.8025 13.6402C33.4185 13.6402 33.9545 13.7882 34.4105 14.0842C34.8745 14.3802 35.2385 14.7722 35.5025 15.2602C35.7665 15.7402 35.8985 16.2682 35.8985 16.8442C35.8985 16.9082 35.8985 16.9722 35.8985 17.0362C35.8985 17.0922 35.8945 17.1362 35.8865 17.1682H30.5345C30.5745 17.6162 30.6985 18.0162 30.9065 18.3682C31.1225 18.7122 31.3985 18.9882 31.7345 19.1962C32.0785 19.3962 32.4505 19.4962 32.8505 19.4962C33.2585 19.4962 33.6425 19.3922 34.0025 19.1842C34.3705 18.9762 34.6265 18.7042 34.7705 18.3682L35.4785 18.5602C35.3505 18.8562 35.1545 19.1242 34.8905 19.3642C34.6265 19.6042 34.3145 19.7922 33.9545 19.9282C33.6025 20.0562 33.2225 20.1202 32.8145 20.1202ZM30.5105 16.5802H35.1305C35.0985 16.1242 34.9745 15.7242 34.7585 15.3802C34.5505 15.0362 34.2745 14.7682 33.9305 14.5762C33.5945 14.3762 33.2225 14.2762 32.8145 14.2762C32.4065 14.2762 32.0345 14.3762 31.6985 14.5762C31.3625 14.7682 31.0865 15.0402 30.8705 15.3922C30.6625 15.7362 30.5425 16.1322 30.5105 16.5802ZM36.8935 18.2002C36.8935 17.8082 37.0055 17.4722 37.2295 17.1922C37.4535 16.9042 37.7615 16.6842 38.1535 16.5322C38.5535 16.3722 39.0135 16.2922 39.5335 16.2922C39.8375 16.2922 40.1535 16.3162 40.4815 16.3642C40.8095 16.4122 41.1015 16.4842 41.3575 16.5802V16.0522C41.3575 15.5242 41.2015 15.1042 40.8895 14.7922C40.5775 14.4802 40.1455 14.3242 39.5935 14.3242C39.2575 14.3242 38.9255 14.3882 38.5975 14.5162C38.2775 14.6362 37.9415 14.8162 37.5895 15.0562L37.2775 14.4802C37.6855 14.2002 38.0855 13.9922 38.4775 13.8562C38.8695 13.7122 39.2695 13.6402 39.6775 13.6402C40.4455 13.6402 41.0535 13.8602 41.5015 14.3002C41.9495 14.7402 42.1735 15.3482 42.1735 16.1242V19.0162C42.1735 19.1282 42.1975 19.2122 42.2455 19.2682C42.2935 19.3162 42.3695 19.3442 42.4735 19.3522V20.0002C42.3855 20.0082 42.3095 20.0162 42.2455 20.0242C42.1815 20.0322 42.1335 20.0322 42.1015 20.0242C41.9015 20.0162 41.7495 19.9522 41.6455 19.8322C41.5415 19.7122 41.4855 19.5842 41.4775 19.4482L41.4655 18.9922C41.1855 19.3522 40.8215 19.6322 40.3735 19.8322C39.9255 20.0242 39.4695 20.1202 39.0055 20.1202C38.6055 20.1202 38.2415 20.0362 37.9135 19.8682C37.5935 19.6922 37.3415 19.4602 37.1575 19.1722C36.9815 18.8762 36.8935 18.5522 36.8935 18.2002ZM41.0815 18.6802C41.1695 18.5682 41.2375 18.4602 41.2855 18.3562C41.3335 18.2522 41.3575 18.1602 41.3575 18.0802V17.1682C41.0855 17.0642 40.8015 16.9842 40.5055 16.9282C40.2175 16.8722 39.9255 16.8442 39.6295 16.8442C39.0455 16.8442 38.5735 16.9602 38.2135 17.1922C37.8535 17.4242 37.6735 17.7402 37.6735 18.1402C37.6735 18.3722 37.7335 18.5922 37.8535 18.8002C37.9735 19.0002 38.1495 19.1682 38.3815 19.3042C38.6135 19.4322 38.8855 19.4962 39.1975 19.4962C39.5895 19.4962 39.9535 19.4202 40.2895 19.2682C40.6335 19.1162 40.8975 18.9202 41.0815 18.6802ZM47.2965 14.4682C46.7525 14.4842 46.2725 14.6362 45.8565 14.9242C45.4485 15.2122 45.1605 15.6082 44.9925 16.1122V20.0002H44.1765V13.7482H44.9445V15.2482C45.1605 14.8082 45.4445 14.4522 45.7965 14.1802C46.1565 13.9082 46.5365 13.7562 46.9365 13.7242C47.0165 13.7162 47.0845 13.7122 47.1405 13.7122C47.2045 13.7122 47.2565 13.7162 47.2965 13.7242V14.4682ZM51.1363 20.1202C50.6803 20.1202 50.2603 20.0362 49.8763 19.8682C49.5003 19.6922 49.1683 19.4522 48.8803 19.1482C48.6003 18.8442 48.3803 18.4962 48.2203 18.1042C48.0683 17.7122 47.9923 17.2962 47.9923 16.8562C47.9923 16.2642 48.1243 15.7242 48.3883 15.2362C48.6523 14.7482 49.0203 14.3602 49.4923 14.0722C49.9643 13.7842 50.5083 13.6402 51.1243 13.6402C51.7083 13.6402 52.2243 13.7762 52.6723 14.0482C53.1203 14.3122 53.4523 14.6722 53.6683 15.1282L52.8763 15.3802C52.7003 15.0602 52.4523 14.8122 52.1323 14.6362C51.8203 14.4522 51.4723 14.3602 51.0883 14.3602C50.6723 14.3602 50.2923 14.4682 49.9483 14.6842C49.6043 14.9002 49.3283 15.1962 49.1203 15.5722C48.9203 15.9482 48.8203 16.3762 48.8203 16.8562C48.8203 17.3282 48.9243 17.7562 49.1323 18.1402C49.3403 18.5242 49.6163 18.8322 49.9603 19.0642C50.3043 19.2882 50.6843 19.4002 51.1003 19.4002C51.3723 19.4002 51.6323 19.3522 51.8803 19.2562C52.1363 19.1602 52.3563 19.0322 52.5403 18.8722C52.7323 18.7042 52.8603 18.5242 52.9243 18.3322L53.7283 18.5722C53.6163 18.8682 53.4283 19.1362 53.1643 19.3762C52.9083 19.6082 52.6043 19.7922 52.2523 19.9282C51.9083 20.0562 51.5363 20.1202 51.1363 20.1202ZM60.5063 20.0002H59.6903V16.5082C59.6903 15.8042 59.5663 15.2762 59.3183 14.9242C59.0703 14.5642 58.7143 14.3842 58.2503 14.3842C57.9463 14.3842 57.6423 14.4642 57.3383 14.6242C57.0423 14.7762 56.7783 14.9882 56.5463 15.2602C56.3223 15.5242 56.1623 15.8282 56.0663 16.1722V20.0002H55.2503V11.2402H56.0663V15.1642C56.3143 14.7002 56.6583 14.3322 57.0983 14.0602C57.5463 13.7802 58.0223 13.6402 58.5263 13.6402C58.8863 13.6402 59.1903 13.7042 59.4383 13.8322C59.6943 13.9602 59.8983 14.1482 60.0503 14.3962C60.2103 14.6362 60.3263 14.9202 60.3983 15.2482C60.4703 15.5682 60.5063 15.9322 60.5063 16.3402V20.0002Z" fill="black"/>
</g>
<defs>
<clipPath id="clip0_264_82">
<rect width="70" height="32" fill="white"/>
</clipPath>
</defs>
</svg>
