<svg width="47" height="47" viewBox="0 0 47 47" fill="none" xmlns="http://www.w3.org/2000/svg">
<path d="M18.5 2H28.5C29.2956 2 30.0587 2.31607 30.6213 2.87868C31.1839 3.44129 31.5 4.20435 31.5 5V19C31.5 19.7956 31.1839 20.5587 30.6213 21.1213C30.0587 21.6839 29.2956 22 28.5 22H18.5C17.7044 22 16.9413 21.6839 16.3787 21.1213C15.8161 20.5587 15.5 19.7956 15.5 19V5C15.5 4.20435 15.8161 3.44129 16.3787 2.87868C16.9413 2.31607 17.7044 2 18.5 2ZM18.5 4C18.2348 4 17.9804 4.10536 17.7929 4.29289C17.6054 4.48043 17.5 4.73478 17.5 5V19C17.5 19.2652 17.6054 19.5196 17.7929 19.7071C17.9804 19.8946 18.2348 20 18.5 20H28.5C28.7652 20 29.0196 19.8946 29.2071 19.7071C29.3946 19.5196 29.5 19.2652 29.5 19V5C29.5 4.73478 29.3946 4.48043 29.2071 4.29289C29.0196 4.10536 28.7652 4 28.5 4H18.5ZM20.5 5H26.5C26.7652 5 27.0196 5.10536 27.2071 5.29289C27.3946 5.48043 27.5 5.73478 27.5 6C27.5 6.26522 27.3946 6.51957 27.2071 6.70711C27.0196 6.89464 26.7652 7 26.5 7H20.5C20.2348 7 19.9804 6.89464 19.7929 6.70711C19.6054 6.51957 19.5 6.26522 19.5 6C19.5 5.73478 19.6054 5.48043 19.7929 5.29289C19.9804 5.10536 20.2348 5 20.5 5ZM20.5 17H22.5C22.7652 17 23.0196 17.1054 23.2071 17.2929C23.3946 17.4804 23.5 17.7348 23.5 18C23.5 18.2652 23.3946 18.5196 23.2071 18.7071C23.0196 18.8946 22.7652 19 22.5 19H20.5C20.2348 19 19.9804 18.8946 19.7929 18.7071C19.6054 18.5196 19.5 18.2652 19.5 18C19.5 17.7348 19.6054 17.4804 19.7929 17.2929C19.9804 17.1054 20.2348 17 20.5 17ZM20.5 13H26.5C26.7652 13 27.0196 13.1054 27.2071 13.2929C27.3946 13.4804 27.5 13.7348 27.5 14C27.5 14.2652 27.3946 14.5196 27.2071 14.7071C27.0196 14.8946 26.7652 15 26.5 15H20.5C20.2348 15 19.9804 14.8946 19.7929 14.7071C19.6054 14.5196 19.5 14.2652 19.5 14C19.5 13.7348 19.6054 13.4804 19.7929 13.2929C19.9804 13.1054 20.2348 13 20.5 13ZM20.5 9H26.5C26.7652 9 27.0196 9.10536 27.2071 9.29289C27.3946 9.48043 27.5 9.73478 27.5 10C27.5 10.2652 27.3946 10.5196 27.2071 10.7071C27.0196 10.8946 26.7652 11 26.5 11H20.5C20.2348 11 19.9804 10.8946 19.7929 10.7071C19.6054 10.5196 19.5 10.2652 19.5 10C19.5 9.73478 19.6054 9.48043 19.7929 9.29289C19.9804 9.10536 20.2348 9 20.5 9Z" fill="#1A1003" fill-opacity="0.5"/>
<path d="M0.960938 41.0005V32.4805H4.66894C5.05294 32.4805 5.40494 32.5605 5.72494 32.7205C6.04494 32.8805 6.32094 33.0925 6.55294 33.3565C6.79294 33.6205 6.97694 33.9165 7.10494 34.2445C7.24094 34.5725 7.30894 34.9085 7.30894 35.2525C7.30894 35.6285 7.24094 35.9885 7.10494 36.3325C6.96894 36.6765 6.77294 36.9725 6.51694 37.2205C6.26894 37.4685 5.97694 37.6485 5.64094 37.7605L7.64494 41.0005H6.13294L4.28494 38.0365H2.30494V41.0005H0.960938ZM2.30494 36.8485H4.65694C4.90494 36.8485 5.12494 36.7765 5.31694 36.6325C5.50894 36.4885 5.66094 36.2965 5.77294 36.0565C5.88494 35.8085 5.94094 35.5405 5.94094 35.2525C5.94094 34.9565 5.87694 34.6925 5.74894 34.4605C5.62094 34.2205 5.45294 34.0285 5.24494 33.8845C5.04494 33.7405 4.82494 33.6685 4.58494 33.6685H2.30494V36.8485ZM11.3713 41.1205C10.8833 41.1205 10.4393 41.0365 10.0393 40.8685C9.64732 40.6925 9.30732 40.4565 9.01932 40.1605C8.73132 39.8565 8.50732 39.5125 8.34732 39.1285C8.19532 38.7365 8.11932 38.3205 8.11932 37.8805C8.11932 37.2885 8.25532 36.7485 8.52731 36.2605C8.79932 35.7645 9.17932 35.3685 9.66732 35.0725C10.1553 34.7685 10.7273 34.6165 11.3833 34.6165C12.0393 34.6165 12.6033 34.7685 13.0753 35.0725C13.5553 35.3685 13.9273 35.7605 14.1913 36.2485C14.4553 36.7365 14.5873 37.2605 14.5873 37.8205C14.5873 37.9165 14.5833 38.0085 14.5753 38.0965C14.5673 38.1765 14.5593 38.2445 14.5513 38.3005H9.52332C9.54732 38.6685 9.64732 38.9925 9.82332 39.2725C10.0073 39.5445 10.2393 39.7605 10.5193 39.9205C10.7993 40.0725 11.0993 40.1485 11.4193 40.1485C11.7713 40.1485 12.1033 40.0605 12.4153 39.8845C12.7353 39.7085 12.9513 39.4765 13.0633 39.1885L14.1913 39.5125C14.0553 39.8165 13.8473 40.0925 13.5673 40.3405C13.2953 40.5805 12.9713 40.7725 12.5953 40.9165C12.2193 41.0525 11.8113 41.1205 11.3713 41.1205ZM9.48732 37.4245H13.2793C13.2553 37.0645 13.1513 36.7485 12.9673 36.4765C12.7913 36.1965 12.5633 35.9805 12.2833 35.8285C12.0113 35.6685 11.7073 35.5885 11.3713 35.5885C11.0433 35.5885 10.7393 35.6685 10.4593 35.8285C10.1873 35.9805 9.96332 36.1965 9.78732 36.4765C9.61132 36.7485 9.51132 37.0645 9.48732 37.4245ZM17.896 41.1205C17.368 41.1205 16.868 41.0365 16.396 40.8685C15.924 40.6925 15.52 40.4325 15.184 40.0885L15.676 39.2005C16.036 39.5205 16.396 39.7525 16.756 39.8965C17.124 40.0405 17.488 40.1125 17.848 40.1125C18.216 40.1125 18.516 40.0445 18.748 39.9085C18.98 39.7645 19.096 39.5565 19.096 39.2845C19.096 39.0845 19.036 38.9365 18.916 38.8405C18.796 38.7445 18.62 38.6605 18.388 38.5885C18.164 38.5165 17.892 38.4365 17.572 38.3485C17.124 38.2125 16.748 38.0725 16.444 37.9285C16.14 37.7765 15.912 37.5925 15.76 37.3765C15.608 37.1605 15.532 36.8845 15.532 36.5485C15.532 36.1405 15.636 35.7925 15.844 35.5045C16.052 35.2165 16.34 34.9965 16.708 34.8445C17.084 34.6925 17.516 34.6165 18.004 34.6165C18.46 34.6165 18.88 34.6885 19.264 34.8325C19.656 34.9685 20 35.1845 20.296 35.4805L19.732 36.3565C19.452 36.1005 19.164 35.9125 18.868 35.7925C18.58 35.6725 18.268 35.6125 17.932 35.6125C17.74 35.6125 17.556 35.6365 17.38 35.6845C17.204 35.7245 17.056 35.8045 16.936 35.9245C16.824 36.0365 16.768 36.1965 16.768 36.4045C16.768 36.5725 16.816 36.7085 16.912 36.8125C17.008 36.9165 17.152 37.0045 17.344 37.0765C17.536 37.1485 17.772 37.2285 18.052 37.3165C18.54 37.4605 18.956 37.6045 19.3 37.7485C19.644 37.8845 19.908 38.0645 20.092 38.2885C20.284 38.5045 20.38 38.8045 20.38 39.1885C20.38 39.7965 20.152 40.2725 19.696 40.6165C19.248 40.9525 18.648 41.1205 17.896 41.1205ZM21.4985 38.5645V34.7245H22.8185V38.3005C22.8185 38.8605 22.9185 39.2845 23.1185 39.5725C23.3265 39.8525 23.6265 39.9925 24.0185 39.9925C24.2665 39.9925 24.5065 39.9405 24.7385 39.8365C24.9785 39.7325 25.1945 39.5805 25.3865 39.3805C25.5865 39.1725 25.7465 38.9245 25.8665 38.6365V34.7245H27.1865V39.5125C27.1865 39.6645 27.2145 39.7725 27.2705 39.8365C27.3265 39.9005 27.4185 39.9365 27.5465 39.9445V41.0005C27.4105 41.0245 27.2985 41.0405 27.2105 41.0485C27.1225 41.0565 27.0385 41.0605 26.9585 41.0605C26.7185 41.0605 26.5185 40.9965 26.3585 40.8685C26.1985 40.7325 26.1065 40.5605 26.0825 40.3525L26.0585 39.7285C25.7785 40.1845 25.4145 40.5325 24.9665 40.7725C24.5185 41.0045 24.0265 41.1205 23.4905 41.1205C22.8345 41.1205 22.3385 40.9045 22.0025 40.4725C21.6665 40.0405 21.4985 39.4045 21.4985 38.5645ZM38.471 41.0005H37.151V37.4845C37.151 36.9005 37.055 36.4725 36.863 36.2005C36.671 35.9285 36.391 35.7925 36.023 35.7925C35.655 35.7925 35.311 35.9325 34.991 36.2125C34.679 36.4845 34.459 36.8405 34.331 37.2805V41.0005H33.011V37.4845C33.011 36.9005 32.915 36.4725 32.723 36.2005C32.531 35.9285 32.255 35.7925 31.895 35.7925C31.527 35.7925 31.183 35.9285 30.863 36.2005C30.551 36.4725 30.327 36.8285 30.191 37.2685V41.0005H28.871V34.7245H30.071V35.9845C30.319 35.5445 30.643 35.2085 31.043 34.9765C31.451 34.7365 31.915 34.6165 32.435 34.6165C32.955 34.6165 33.363 34.7525 33.659 35.0245C33.963 35.2965 34.151 35.6365 34.223 36.0445C34.495 35.5805 34.827 35.2285 35.219 34.9885C35.619 34.7405 36.075 34.6165 36.587 34.6165C36.955 34.6165 37.263 34.6845 37.511 34.8205C37.759 34.9565 37.951 35.1445 38.087 35.3845C38.223 35.6165 38.319 35.8885 38.375 36.2005C38.439 36.5045 38.471 36.8285 38.471 37.1725V41.0005ZM42.8361 41.1205C42.3481 41.1205 41.9041 41.0365 41.5041 40.8685C41.1121 40.6925 40.7721 40.4565 40.4841 40.1605C40.1961 39.8565 39.9721 39.5125 39.8121 39.1285C39.6601 38.7365 39.5841 38.3205 39.5841 37.8805C39.5841 37.2885 39.7201 36.7485 39.9921 36.2605C40.2641 35.7645 40.6441 35.3685 41.1321 35.0725C41.6201 34.7685 42.1921 34.6165 42.8481 34.6165C43.5041 34.6165 44.0681 34.7685 44.5401 35.0725C45.0201 35.3685 45.3921 35.7605 45.6561 36.2485C45.9201 36.7365 46.0521 37.2605 46.0521 37.8205C46.0521 37.9165 46.0481 38.0085 46.0401 38.0965C46.0321 38.1765 46.0241 38.2445 46.0161 38.3005H40.9881C41.0121 38.6685 41.1121 38.9925 41.2881 39.2725C41.4721 39.5445 41.7041 39.7605 41.9841 39.9205C42.2641 40.0725 42.5641 40.1485 42.8841 40.1485C43.2361 40.1485 43.5681 40.0605 43.8801 39.8845C44.2001 39.7085 44.4161 39.4765 44.5281 39.1885L45.6561 39.5125C45.5201 39.8165 45.3121 40.0925 45.0321 40.3405C44.7601 40.5805 44.4361 40.7725 44.0601 40.9165C43.6841 41.0525 43.2761 41.1205 42.8361 41.1205ZM40.9521 37.4245H44.7441C44.7201 37.0645 44.6161 36.7485 44.4321 36.4765C44.2561 36.1965 44.0281 35.9805 43.7481 35.8285C43.4761 35.6685 43.1721 35.5885 42.8361 35.5885C42.5081 35.5885 42.2041 35.6685 41.9241 35.8285C41.6521 35.9805 41.4281 36.1965 41.2521 36.4765C41.0761 36.7485 40.9761 37.0645 40.9521 37.4245Z" fill="black"/>
</svg>
