<svg width="47" height="44" viewBox="0 0 47 44" fill="none" xmlns="http://www.w3.org/2000/svg">
<path d="M18.5 2H28.5C29.2956 2 30.0587 2.31607 30.6213 2.87868C31.1839 3.44129 31.5 4.20435 31.5 5V19C31.5 19.7956 31.1839 20.5587 30.6213 21.1213C30.0587 21.6839 29.2956 22 28.5 22H18.5C17.7044 22 16.9413 21.6839 16.3787 21.1213C15.8161 20.5587 15.5 19.7956 15.5 19V5C15.5 4.20435 15.8161 3.44129 16.3787 2.87868C16.9413 2.31607 17.7044 2 18.5 2ZM18.5 4C18.2348 4 17.9804 4.10536 17.7929 4.29289C17.6054 4.48043 17.5 4.73478 17.5 5V19C17.5 19.2652 17.6054 19.5196 17.7929 19.7071C17.9804 19.8946 18.2348 20 18.5 20H28.5C28.7652 20 29.0196 19.8946 29.2071 19.7071C29.3946 19.5196 29.5 19.2652 29.5 19V5C29.5 4.73478 29.3946 4.48043 29.2071 4.29289C29.0196 4.10536 28.7652 4 28.5 4H18.5ZM20.5 5H26.5C26.7652 5 27.0196 5.10536 27.2071 5.29289C27.3946 5.48043 27.5 5.73478 27.5 6C27.5 6.26522 27.3946 6.51957 27.2071 6.70711C27.0196 6.89464 26.7652 7 26.5 7H20.5C20.2348 7 19.9804 6.89464 19.7929 6.70711C19.6054 6.51957 19.5 6.26522 19.5 6C19.5 5.73478 19.6054 5.48043 19.7929 5.29289C19.9804 5.10536 20.2348 5 20.5 5ZM20.5 17H22.5C22.7652 17 23.0196 17.1054 23.2071 17.2929C23.3946 17.4804 23.5 17.7348 23.5 18C23.5 18.2652 23.3946 18.5196 23.2071 18.7071C23.0196 18.8946 22.7652 19 22.5 19H20.5C20.2348 19 19.9804 18.8946 19.7929 18.7071C19.6054 18.5196 19.5 18.2652 19.5 18C19.5 17.7348 19.6054 17.4804 19.7929 17.2929C19.9804 17.1054 20.2348 17 20.5 17ZM20.5 13H26.5C26.7652 13 27.0196 13.1054 27.2071 13.2929C27.3946 13.4804 27.5 13.7348 27.5 14C27.5 14.2652 27.3946 14.5196 27.2071 14.7071C27.0196 14.8946 26.7652 15 26.5 15H20.5C20.2348 15 19.9804 14.8946 19.7929 14.7071C19.6054 14.5196 19.5 14.2652 19.5 14C19.5 13.7348 19.6054 13.4804 19.7929 13.2929C19.9804 13.1054 20.2348 13 20.5 13ZM20.5 9H26.5C26.7652 9 27.0196 9.10536 27.2071 9.29289C27.3946 9.48043 27.5 9.73478 27.5 10C27.5 10.2652 27.3946 10.5196 27.2071 10.7071C27.0196 10.8946 26.7652 11 26.5 11H20.5C20.2348 11 19.9804 10.8946 19.7929 10.7071C19.6054 10.5196 19.5 10.2652 19.5 10C19.5 9.73478 19.6054 9.48043 19.7929 9.29289C19.9804 9.10536 20.2348 9 20.5 9Z" fill="#F2F7FC"/>
<path d="M0.960938 38.0005V29.4805H4.66894C5.05294 29.4805 5.40494 29.5605 5.72494 29.7205C6.04494 29.8805 6.32094 30.0925 6.55294 30.3565C6.79294 30.6205 6.97694 30.9165 7.10494 31.2445C7.24094 31.5725 7.30894 31.9085 7.30894 32.2525C7.30894 32.6285 7.24094 32.9885 7.10494 33.3325C6.96894 33.6765 6.77294 33.9725 6.51694 34.2205C6.26894 34.4685 5.97694 34.6485 5.64094 34.7605L7.64494 38.0005H6.13294L4.28494 35.0365H2.30494V38.0005H0.960938ZM2.30494 33.8485H4.65694C4.90494 33.8485 5.12494 33.7765 5.31694 33.6325C5.50894 33.4885 5.66094 33.2965 5.77294 33.0565C5.88494 32.8085 5.94094 32.5405 5.94094 32.2525C5.94094 31.9565 5.87694 31.6925 5.74894 31.4605C5.62094 31.2205 5.45294 31.0285 5.24494 30.8845C5.04494 30.7405 4.82494 30.6685 4.58494 30.6685H2.30494V33.8485ZM11.3713 38.1205C10.8833 38.1205 10.4393 38.0365 10.0393 37.8685C9.64732 37.6925 9.30732 37.4565 9.01932 37.1605C8.73132 36.8565 8.50732 36.5125 8.34732 36.1285C8.19532 35.7365 8.11932 35.3205 8.11932 34.8805C8.11932 34.2885 8.25532 33.7485 8.52731 33.2605C8.79932 32.7645 9.17932 32.3685 9.66732 32.0725C10.1553 31.7685 10.7273 31.6165 11.3833 31.6165C12.0393 31.6165 12.6033 31.7685 13.0753 32.0725C13.5553 32.3685 13.9273 32.7605 14.1913 33.2485C14.4553 33.7365 14.5873 34.2605 14.5873 34.8205C14.5873 34.9165 14.5833 35.0085 14.5753 35.0965C14.5673 35.1765 14.5593 35.2445 14.5513 35.3005H9.52332C9.54732 35.6685 9.64732 35.9925 9.82332 36.2725C10.0073 36.5445 10.2393 36.7605 10.5193 36.9205C10.7993 37.0725 11.0993 37.1485 11.4193 37.1485C11.7713 37.1485 12.1033 37.0605 12.4153 36.8845C12.7353 36.7085 12.9513 36.4765 13.0633 36.1885L14.1913 36.5125C14.0553 36.8165 13.8473 37.0925 13.5673 37.3405C13.2953 37.5805 12.9713 37.7725 12.5953 37.9165C12.2193 38.0525 11.8113 38.1205 11.3713 38.1205ZM9.48732 34.4245H13.2793C13.2553 34.0645 13.1513 33.7485 12.9673 33.4765C12.7913 33.1965 12.5633 32.9805 12.2833 32.8285C12.0113 32.6685 11.7073 32.5885 11.3713 32.5885C11.0433 32.5885 10.7393 32.6685 10.4593 32.8285C10.1873 32.9805 9.96332 33.1965 9.78732 33.4765C9.61132 33.7485 9.51132 34.0645 9.48732 34.4245ZM17.896 38.1205C17.368 38.1205 16.868 38.0365 16.396 37.8685C15.924 37.6925 15.52 37.4325 15.184 37.0885L15.676 36.2005C16.036 36.5205 16.396 36.7525 16.756 36.8965C17.124 37.0405 17.488 37.1125 17.848 37.1125C18.216 37.1125 18.516 37.0445 18.748 36.9085C18.98 36.7645 19.096 36.5565 19.096 36.2845C19.096 36.0845 19.036 35.9365 18.916 35.8405C18.796 35.7445 18.62 35.6605 18.388 35.5885C18.164 35.5165 17.892 35.4365 17.572 35.3485C17.124 35.2125 16.748 35.0725 16.444 34.9285C16.14 34.7765 15.912 34.5925 15.76 34.3765C15.608 34.1605 15.532 33.8845 15.532 33.5485C15.532 33.1405 15.636 32.7925 15.844 32.5045C16.052 32.2165 16.34 31.9965 16.708 31.8445C17.084 31.6925 17.516 31.6165 18.004 31.6165C18.46 31.6165 18.88 31.6885 19.264 31.8325C19.656 31.9685 20 32.1845 20.296 32.4805L19.732 33.3565C19.452 33.1005 19.164 32.9125 18.868 32.7925C18.58 32.6725 18.268 32.6125 17.932 32.6125C17.74 32.6125 17.556 32.6365 17.38 32.6845C17.204 32.7245 17.056 32.8045 16.936 32.9245C16.824 33.0365 16.768 33.1965 16.768 33.4045C16.768 33.5725 16.816 33.7085 16.912 33.8125C17.008 33.9165 17.152 34.0045 17.344 34.0765C17.536 34.1485 17.772 34.2285 18.052 34.3165C18.54 34.4605 18.956 34.6045 19.3 34.7485C19.644 34.8845 19.908 35.0645 20.092 35.2885C20.284 35.5045 20.38 35.8045 20.38 36.1885C20.38 36.7965 20.152 37.2725 19.696 37.6165C19.248 37.9525 18.648 38.1205 17.896 38.1205ZM21.4985 35.5645V31.7245H22.8185V35.3005C22.8185 35.8605 22.9185 36.2845 23.1185 36.5725C23.3265 36.8525 23.6265 36.9925 24.0185 36.9925C24.2665 36.9925 24.5065 36.9405 24.7385 36.8365C24.9785 36.7325 25.1945 36.5805 25.3865 36.3805C25.5865 36.1725 25.7465 35.9245 25.8665 35.6365V31.7245H27.1865V36.5125C27.1865 36.6645 27.2145 36.7725 27.2705 36.8365C27.3265 36.9005 27.4185 36.9365 27.5465 36.9445V38.0005C27.4105 38.0245 27.2985 38.0405 27.2105 38.0485C27.1225 38.0565 27.0385 38.0605 26.9585 38.0605C26.7185 38.0605 26.5185 37.9965 26.3585 37.8685C26.1985 37.7325 26.1065 37.5605 26.0825 37.3525L26.0585 36.7285C25.7785 37.1845 25.4145 37.5325 24.9665 37.7725C24.5185 38.0045 24.0265 38.1205 23.4905 38.1205C22.8345 38.1205 22.3385 37.9045 22.0025 37.4725C21.6665 37.0405 21.4985 36.4045 21.4985 35.5645ZM38.471 38.0005H37.151V34.4845C37.151 33.9005 37.055 33.4725 36.863 33.2005C36.671 32.9285 36.391 32.7925 36.023 32.7925C35.655 32.7925 35.311 32.9325 34.991 33.2125C34.679 33.4845 34.459 33.8405 34.331 34.2805V38.0005H33.011V34.4845C33.011 33.9005 32.915 33.4725 32.723 33.2005C32.531 32.9285 32.255 32.7925 31.895 32.7925C31.527 32.7925 31.183 32.9285 30.863 33.2005C30.551 33.4725 30.327 33.8285 30.191 34.2685V38.0005H28.871V31.7245H30.071V32.9845C30.319 32.5445 30.643 32.2085 31.043 31.9765C31.451 31.7365 31.915 31.6165 32.435 31.6165C32.955 31.6165 33.363 31.7525 33.659 32.0245C33.963 32.2965 34.151 32.6365 34.223 33.0445C34.495 32.5805 34.827 32.2285 35.219 31.9885C35.619 31.7405 36.075 31.6165 36.587 31.6165C36.955 31.6165 37.263 31.6845 37.511 31.8205C37.759 31.9565 37.951 32.1445 38.087 32.3845C38.223 32.6165 38.319 32.8885 38.375 33.2005C38.439 33.5045 38.471 33.8285 38.471 34.1725V38.0005ZM42.8361 38.1205C42.3481 38.1205 41.9041 38.0365 41.5041 37.8685C41.1121 37.6925 40.7721 37.4565 40.4841 37.1605C40.1961 36.8565 39.9721 36.5125 39.8121 36.1285C39.6601 35.7365 39.5841 35.3205 39.5841 34.8805C39.5841 34.2885 39.7201 33.7485 39.9921 33.2605C40.2641 32.7645 40.6441 32.3685 41.1321 32.0725C41.6201 31.7685 42.1921 31.6165 42.8481 31.6165C43.5041 31.6165 44.0681 31.7685 44.5401 32.0725C45.0201 32.3685 45.3921 32.7605 45.6561 33.2485C45.9201 33.7365 46.0521 34.2605 46.0521 34.8205C46.0521 34.9165 46.0481 35.0085 46.0401 35.0965C46.0321 35.1765 46.0241 35.2445 46.0161 35.3005H40.9881C41.0121 35.6685 41.1121 35.9925 41.2881 36.2725C41.4721 36.5445 41.7041 36.7605 41.9841 36.9205C42.2641 37.0725 42.5641 37.1485 42.8841 37.1485C43.2361 37.1485 43.5681 37.0605 43.8801 36.8845C44.2001 36.7085 44.4161 36.4765 44.5281 36.1885L45.6561 36.5125C45.5201 36.8165 45.3121 37.0925 45.0321 37.3405C44.7601 37.5805 44.4361 37.7725 44.0601 37.9165C43.6841 38.0525 43.2761 38.1205 42.8361 38.1205ZM40.9521 34.4245H44.7441C44.7201 34.0645 44.6161 33.7485 44.4321 33.4765C44.2561 33.1965 44.0281 32.9805 43.7481 32.8285C43.4761 32.6685 43.1721 32.5885 42.8361 32.5885C42.5081 32.5885 42.2041 32.6685 41.9241 32.8285C41.6521 32.9805 41.4281 33.1965 41.2521 33.4765C41.0761 33.7485 40.9761 34.0645 40.9521 34.4245Z" fill="#F2F7FC"/>
</svg>
