<svg width="40" height="32" viewBox="0 0 40 32" fill="none" xmlns="http://www.w3.org/2000/svg">
<g clip-path="url(#clip0_261_60)">
<path d="M32 0H8C3.58172 0 0 3.58172 0 8V24C0 28.4183 3.58172 32 8 32H32C36.4183 32 40 28.4183 40 24V8C40 3.58172 36.4183 0 32 0Z" fill="#E1E8EF"/>
<path d="M14.0468 13.0759C13.9268 12.9399 13.7868 12.8199 13.6268 12.7159C13.4668 12.6039 13.2868 12.5079 13.0868 12.4279C12.8868 12.3479 12.6708 12.2839 12.4388 12.2359C12.2148 12.1879 11.9748 12.1639 11.7188 12.1639C10.9748 12.1639 10.4268 12.3079 10.0748 12.5959C9.73081 12.8759 9.55881 13.2599 9.55881 13.7479C9.55881 14.0839 9.63881 14.3479 9.79881 14.5399C9.96681 14.7319 10.2268 14.8879 10.5788 15.0079C10.9308 15.1279 11.3788 15.2519 11.9228 15.3799C12.5308 15.5079 13.0548 15.6599 13.4948 15.8359C13.9348 16.0119 14.2748 16.2519 14.5148 16.5559C14.7548 16.8519 14.8748 17.2559 14.8748 17.7679C14.8748 18.1599 14.7988 18.4999 14.6468 18.7879C14.4948 19.0759 14.2828 19.3159 14.0108 19.5079C13.7388 19.6999 13.4148 19.8439 13.0388 19.9399C12.6628 20.0279 12.2508 20.0719 11.8028 20.0719C11.3628 20.0719 10.9388 20.0279 10.5308 19.9399C10.1308 19.8439 9.75081 19.7079 9.39081 19.5319C9.03081 19.3479 8.69481 19.1159 8.38281 18.8359L8.80281 18.1519C8.95481 18.3119 9.13481 18.4639 9.34281 18.6079C9.55881 18.7439 9.79481 18.8679 10.0508 18.9799C10.3148 19.0919 10.5948 19.1799 10.8908 19.2439C11.1948 19.2999 11.5068 19.3279 11.8268 19.3279C12.5068 19.3279 13.0348 19.2039 13.4108 18.9559C13.7948 18.7079 13.9868 18.3399 13.9868 17.8519C13.9868 17.4999 13.8908 17.2199 13.6988 17.0119C13.5068 16.7959 13.2188 16.6199 12.8348 16.4839C12.4508 16.3479 11.9788 16.2159 11.4188 16.0879C10.8268 15.9519 10.3268 15.7999 9.91881 15.6319C9.51081 15.4639 9.20281 15.2439 8.99481 14.9719C8.79481 14.6919 8.69481 14.3239 8.69481 13.8679C8.69481 13.3399 8.82281 12.8959 9.07881 12.5359C9.34281 12.1679 9.70281 11.8919 10.1588 11.7079C10.6148 11.5159 11.1388 11.4199 11.7308 11.4199C12.1068 11.4199 12.4548 11.4599 12.7748 11.5399C13.1028 11.6119 13.4028 11.7199 13.6748 11.8639C13.9548 12.0079 14.2148 12.1879 14.4548 12.4039L14.0468 13.0759ZM20.0279 20.0599C19.4279 20.0599 18.8839 19.9399 18.3959 19.6999C17.9079 19.4519 17.4879 19.1239 17.1359 18.7159C16.7839 18.3079 16.5119 17.8479 16.3199 17.3359C16.1279 16.8159 16.0319 16.2839 16.0319 15.7399C16.0319 15.1719 16.1319 14.6319 16.3319 14.1199C16.5319 13.5999 16.8119 13.1399 17.1719 12.7399C17.5399 12.3319 17.9679 12.0119 18.4559 11.7799C18.9439 11.5399 19.4719 11.4199 20.0399 11.4199C20.6399 11.4199 21.1839 11.5439 21.6719 11.7919C22.1599 12.0399 22.5759 12.3719 22.9199 12.7879C23.2719 13.2039 23.5439 13.6679 23.7359 14.1799C23.9279 14.6919 24.0239 15.2159 24.0239 15.7519C24.0239 16.3199 23.9239 16.8639 23.7239 17.3839C23.5239 17.8959 23.2439 18.3559 22.8839 18.7639C22.5239 19.1639 22.0999 19.4799 21.6119 19.7119C21.1239 19.9439 20.5959 20.0599 20.0279 20.0599ZM20.0279 19.3039C20.5159 19.3039 20.9519 19.2039 21.3359 19.0039C21.7279 18.7959 22.0599 18.5239 22.3319 18.1879C22.6119 17.8439 22.8239 17.4599 22.9679 17.0359C23.1119 16.6119 23.1839 16.1799 23.1839 15.7399C23.1839 15.2759 23.1079 14.8319 22.9559 14.4079C22.8039 13.9759 22.5839 13.5959 22.2959 13.2679C22.0159 12.9319 21.6839 12.6679 21.2999 12.4759C20.9159 12.2759 20.4919 12.1759 20.0279 12.1759C19.5479 12.1759 19.1119 12.2799 18.7199 12.4879C18.3359 12.6879 18.0039 12.9599 17.7239 13.3039C17.4519 13.6399 17.2399 14.0199 17.0879 14.4439C16.9439 14.8679 16.8719 15.2999 16.8719 15.7399C16.8719 16.2039 16.9479 16.6519 17.0999 17.0839C17.2519 17.5079 17.4679 17.8879 17.7479 18.2239C18.0279 18.5519 18.3599 18.8159 18.7439 19.0159C19.1359 19.2079 19.5639 19.3039 20.0279 19.3039ZM20.7959 17.3839H21.6239L23.8319 19.9999H23.0039L20.7959 17.3839ZM25.8241 19.9999V11.4799H26.6641V19.2559H31.5841V19.9999H25.8241Z" fill="black"/>
</g>
<defs>
<clipPath id="clip0_261_60">
<rect width="40" height="32" fill="white"/>
</clipPath>
</defs>
</svg>
