<svg width="125" height="32" viewBox="0 0 125 32" fill="none" xmlns="http://www.w3.org/2000/svg">
<g clip-path="url(#clip0_264_68)">
<path d="M117 0H8C3.58172 0 0 3.58172 0 8V24C0 28.4183 3.58172 32 8 32H117C121.418 32 125 28.4183 125 24V8C125 3.58172 121.418 0 117 0Z" fill="#E1E8EF"/>
<path d="M15.1151 12.2242H12.0791V20.0002H11.2391V12.2242H8.20312V11.4802H15.1151V12.2242ZM16.4633 20.0002V13.7482H17.2793V20.0002H16.4633ZM16.4633 12.4402V11.2402H17.2793V12.4402H16.4633ZM28.6166 20.0002H27.8006V16.5082C27.8006 15.7802 27.6846 15.2442 27.4526 14.9002C27.2206 14.5562 26.8766 14.3842 26.4206 14.3842C25.9486 14.3842 25.5246 14.5522 25.1486 14.8882C24.7806 15.2242 24.5206 15.6562 24.3686 16.1842V20.0002H23.5526V16.5082C23.5526 15.7722 23.4406 15.2362 23.2166 14.9002C22.9926 14.5562 22.6486 14.3842 22.1846 14.3842C21.7206 14.3842 21.3006 14.5482 20.9246 14.8762C20.5486 15.2042 20.2846 15.6362 20.1326 16.1722V20.0002H19.3166V13.7482H20.0606V15.1642C20.3246 14.6762 20.6606 14.3002 21.0686 14.0362C21.4846 13.7722 21.9446 13.6402 22.4486 13.6402C22.9686 13.6402 23.3886 13.7882 23.7086 14.0842C24.0286 14.3802 24.2246 14.7682 24.2966 15.2482C24.5846 14.7202 24.9286 14.3202 25.3286 14.0482C25.7366 13.7762 26.1966 13.6402 26.7086 13.6402C27.0606 13.6402 27.3566 13.7042 27.5966 13.8322C27.8446 13.9602 28.0406 14.1442 28.1846 14.3842C28.3366 14.6162 28.4446 14.9002 28.5086 15.2362C28.5806 15.5642 28.6166 15.9322 28.6166 16.3402V20.0002ZM33.2839 20.1202C32.8359 20.1202 32.4199 20.0362 32.0359 19.8682C31.6519 19.6922 31.3199 19.4562 31.0399 19.1602C30.7599 18.8562 30.5399 18.5082 30.3799 18.1162C30.2279 17.7242 30.1519 17.3042 30.1519 16.8562C30.1519 16.2722 30.2839 15.7362 30.5479 15.2482C30.8199 14.7602 31.1919 14.3722 31.6639 14.0842C32.1359 13.7882 32.6719 13.6402 33.2719 13.6402C33.8879 13.6402 34.4239 13.7882 34.8799 14.0842C35.3439 14.3802 35.7079 14.7722 35.9719 15.2602C36.2359 15.7402 36.3679 16.2682 36.3679 16.8442C36.3679 16.9082 36.3679 16.9722 36.3679 17.0362C36.3679 17.0922 36.3639 17.1362 36.3559 17.1682H31.0039C31.0439 17.6162 31.1679 18.0162 31.3759 18.3682C31.5919 18.7122 31.8679 18.9882 32.2039 19.1962C32.5479 19.3962 32.9199 19.4962 33.3199 19.4962C33.7279 19.4962 34.1119 19.3922 34.4719 19.1842C34.8399 18.9762 35.0959 18.7042 35.2399 18.3682L35.9479 18.5602C35.8199 18.8562 35.6239 19.1242 35.3599 19.3642C35.0959 19.6042 34.7839 19.7922 34.4239 19.9282C34.0719 20.0562 33.6919 20.1202 33.2839 20.1202ZM30.9799 16.5802H35.5999C35.5679 16.1242 35.4439 15.7242 35.2279 15.3802C35.0199 15.0362 34.7439 14.7682 34.3999 14.5762C34.0639 14.3762 33.6919 14.2762 33.2839 14.2762C32.8759 14.2762 32.5039 14.3762 32.1679 14.5762C31.8319 14.7682 31.5559 15.0402 31.3399 15.3922C31.1319 15.7362 31.0119 16.1322 30.9799 16.5802ZM48.8815 20.0002V13.0642L45.7975 18.4522H45.2695L42.1735 13.0642V20.0002H41.3335V11.4802H42.1975L45.5215 17.3122L48.8695 11.4802H49.7215V20.0002H48.8815ZM51.3663 18.2002C51.3663 17.8082 51.4783 17.4722 51.7023 17.1922C51.9263 16.9042 52.2343 16.6842 52.6263 16.5322C53.0263 16.3722 53.4863 16.2922 54.0063 16.2922C54.3103 16.2922 54.6263 16.3162 54.9543 16.3642C55.2823 16.4122 55.5743 16.4842 55.8303 16.5802V16.0522C55.8303 15.5242 55.6743 15.1042 55.3623 14.7922C55.0503 14.4802 54.6183 14.3242 54.0663 14.3242C53.7303 14.3242 53.3983 14.3882 53.0703 14.5162C52.7503 14.6362 52.4143 14.8162 52.0623 15.0562L51.7503 14.4802C52.1583 14.2002 52.5583 13.9922 52.9503 13.8562C53.3423 13.7122 53.7423 13.6402 54.1503 13.6402C54.9183 13.6402 55.5263 13.8602 55.9743 14.3002C56.4223 14.7402 56.6463 15.3482 56.6463 16.1242V19.0162C56.6463 19.1282 56.6703 19.2122 56.7183 19.2682C56.7663 19.3162 56.8423 19.3442 56.9463 19.3522V20.0002C56.8583 20.0082 56.7823 20.0162 56.7183 20.0242C56.6543 20.0322 56.6063 20.0322 56.5743 20.0242C56.3743 20.0162 56.2223 19.9522 56.1183 19.8322C56.0143 19.7122 55.9583 19.5842 55.9503 19.4482L55.9383 18.9922C55.6583 19.3522 55.2943 19.6322 54.8463 19.8322C54.3983 20.0242 53.9423 20.1202 53.4783 20.1202C53.0783 20.1202 52.7143 20.0362 52.3863 19.8682C52.0663 19.6922 51.8143 19.4602 51.6303 19.1722C51.4543 18.8762 51.3663 18.5522 51.3663 18.2002ZM55.5543 18.6802C55.6423 18.5682 55.7103 18.4602 55.7583 18.3562C55.8063 18.2522 55.8303 18.1602 55.8303 18.0802V17.1682C55.5583 17.0642 55.2743 16.9842 54.9783 16.9282C54.6903 16.8722 54.3983 16.8442 54.1023 16.8442C53.5183 16.8442 53.0463 16.9602 52.6863 17.1922C52.3263 17.4242 52.1463 17.7402 52.1463 18.1402C52.1463 18.3722 52.2063 18.5922 52.3263 18.8002C52.4463 19.0002 52.6223 19.1682 52.8543 19.3042C53.0863 19.4322 53.3583 19.4962 53.6703 19.4962C54.0623 19.4962 54.4263 19.4202 54.7623 19.2682C55.1063 19.1162 55.3703 18.9202 55.5543 18.6802ZM63.9054 20.0002H63.0894V16.5082C63.0894 15.7722 62.9814 15.2362 62.7654 14.9002C62.5494 14.5562 62.2094 14.3842 61.7454 14.3842C61.4254 14.3842 61.1094 14.4642 60.7974 14.6242C60.4854 14.7762 60.2094 14.9882 59.9694 15.2602C59.7374 15.5242 59.5694 15.8282 59.4654 16.1722V20.0002H58.6494V13.7482H59.3934V15.1642C59.5614 14.8602 59.7814 14.5962 60.0534 14.3722C60.3254 14.1402 60.6334 13.9602 60.9774 13.8322C61.3214 13.7042 61.6774 13.6402 62.0454 13.6402C62.3894 13.6402 62.6814 13.7042 62.9214 13.8322C63.1614 13.9602 63.3534 14.1442 63.4974 14.3842C63.6414 14.6162 63.7454 14.9002 63.8094 15.2362C63.8734 15.5642 63.9054 15.9322 63.9054 16.3402V20.0002ZM65.3815 18.2002C65.3815 17.8082 65.4935 17.4722 65.7175 17.1922C65.9415 16.9042 66.2495 16.6842 66.6415 16.5322C67.0415 16.3722 67.5015 16.2922 68.0215 16.2922C68.3255 16.2922 68.6415 16.3162 68.9695 16.3642C69.2975 16.4122 69.5895 16.4842 69.8455 16.5802V16.0522C69.8455 15.5242 69.6895 15.1042 69.3775 14.7922C69.0655 14.4802 68.6335 14.3242 68.0815 14.3242C67.7455 14.3242 67.4135 14.3882 67.0855 14.5162C66.7655 14.6362 66.4295 14.8162 66.0775 15.0562L65.7655 14.4802C66.1735 14.2002 66.5735 13.9922 66.9655 13.8562C67.3575 13.7122 67.7575 13.6402 68.1655 13.6402C68.9335 13.6402 69.5415 13.8602 69.9895 14.3002C70.4375 14.7402 70.6615 15.3482 70.6615 16.1242V19.0162C70.6615 19.1282 70.6855 19.2122 70.7335 19.2682C70.7815 19.3162 70.8575 19.3442 70.9615 19.3522V20.0002C70.8735 20.0082 70.7975 20.0162 70.7335 20.0242C70.6695 20.0322 70.6215 20.0322 70.5895 20.0242C70.3895 20.0162 70.2375 19.9522 70.1335 19.8322C70.0295 19.7122 69.9735 19.5842 69.9655 19.4482L69.9535 18.9922C69.6735 19.3522 69.3095 19.6322 68.8615 19.8322C68.4135 20.0242 67.9575 20.1202 67.4935 20.1202C67.0935 20.1202 66.7295 20.0362 66.4015 19.8682C66.0815 19.6922 65.8295 19.4602 65.6455 19.1722C65.4695 18.8762 65.3815 18.5522 65.3815 18.2002ZM69.5695 18.6802C69.6575 18.5682 69.7255 18.4602 69.7735 18.3562C69.8215 18.2522 69.8455 18.1602 69.8455 18.0802V17.1682C69.5735 17.0642 69.2895 16.9842 68.9935 16.9282C68.7055 16.8722 68.4135 16.8442 68.1175 16.8442C67.5335 16.8442 67.0615 16.9602 66.7015 17.1922C66.3415 17.4242 66.1615 17.7402 66.1615 18.1402C66.1615 18.3722 66.2215 18.5922 66.3415 18.8002C66.4615 19.0002 66.6375 19.1682 66.8695 19.3042C67.1015 19.4322 67.3735 19.4962 67.6855 19.4962C68.0775 19.4962 68.4415 19.4202 68.7775 19.2682C69.1215 19.1162 69.3855 18.9202 69.5695 18.6802ZM75.1726 20.0842C74.7486 20.0842 74.3566 19.9962 73.9966 19.8202C73.6366 19.6442 73.3246 19.4082 73.0606 19.1122C72.8046 18.8082 72.6046 18.4642 72.4606 18.0802C72.3166 17.6962 72.2446 17.3002 72.2446 16.8922C72.2446 16.4522 72.3126 16.0402 72.4486 15.6562C72.5926 15.2642 72.7926 14.9162 73.0486 14.6122C73.3126 14.3082 73.6206 14.0722 73.9726 13.9042C74.3246 13.7282 74.7166 13.6402 75.1486 13.6402C75.6846 13.6402 76.1486 13.7762 76.5406 14.0482C76.9406 14.3202 77.2766 14.6562 77.5486 15.0562V13.7482H78.2806V20.0242C78.2806 20.6002 78.1406 21.0842 77.8606 21.4762C77.5886 21.8762 77.2166 22.1762 76.7446 22.3762C76.2806 22.5762 75.7726 22.6762 75.2206 22.6762C74.5086 22.6762 73.9326 22.5482 73.4926 22.2922C73.0526 22.0362 72.6926 21.6922 72.4126 21.2602L72.9166 20.8642C73.1646 21.2562 73.4926 21.5482 73.9006 21.7402C74.3166 21.9322 74.7566 22.0282 75.2206 22.0282C75.6286 22.0282 76.0006 21.9522 76.3366 21.8002C76.6806 21.6562 76.9526 21.4362 77.1526 21.1402C77.3606 20.8442 77.4646 20.4722 77.4646 20.0242V18.7882C77.2246 19.1802 76.8966 19.4962 76.4806 19.7362C76.0646 19.9682 75.6286 20.0842 75.1726 20.0842ZM75.4006 19.4002C75.6486 19.4002 75.8846 19.3562 76.1086 19.2682C76.3406 19.1802 76.5526 19.0642 76.7446 18.9202C76.9366 18.7682 77.0966 18.6002 77.2246 18.4162C77.3526 18.2322 77.4326 18.0442 77.4646 17.8522V15.9202C77.3446 15.6162 77.1726 15.3482 76.9486 15.1162C76.7246 14.8762 76.4686 14.6922 76.1806 14.5642C75.9006 14.4282 75.6086 14.3602 75.3046 14.3602C74.9526 14.3602 74.6366 14.4362 74.3566 14.5882C74.0846 14.7322 73.8526 14.9282 73.6606 15.1762C73.4766 15.4162 73.3326 15.6882 73.2286 15.9922C73.1246 16.2962 73.0726 16.6002 73.0726 16.9042C73.0726 17.2402 73.1326 17.5602 73.2526 17.8642C73.3726 18.1602 73.5366 18.4282 73.7446 18.6682C73.9606 18.9002 74.2086 19.0802 74.4886 19.2082C74.7766 19.3362 75.0806 19.4002 75.4006 19.4002ZM83.0225 20.1202C82.5745 20.1202 82.1585 20.0362 81.7745 19.8682C81.3905 19.6922 81.0585 19.4562 80.7785 19.1602C80.4985 18.8562 80.2785 18.5082 80.1185 18.1162C79.9665 17.7242 79.8905 17.3042 79.8905 16.8562C79.8905 16.2722 80.0225 15.7362 80.2865 15.2482C80.5585 14.7602 80.9305 14.3722 81.4025 14.0842C81.8745 13.7882 82.4105 13.6402 83.0105 13.6402C83.6265 13.6402 84.1625 13.7882 84.6185 14.0842C85.0825 14.3802 85.4465 14.7722 85.7105 15.2602C85.9745 15.7402 86.1065 16.2682 86.1065 16.8442C86.1065 16.9082 86.1065 16.9722 86.1065 17.0362C86.1065 17.0922 86.1025 17.1362 86.0945 17.1682H80.7425C80.7825 17.6162 80.9065 18.0162 81.1145 18.3682C81.3305 18.7122 81.6065 18.9882 81.9425 19.1962C82.2865 19.3962 82.6585 19.4962 83.0585 19.4962C83.4665 19.4962 83.8505 19.3922 84.2105 19.1842C84.5785 18.9762 84.8345 18.7042 84.9785 18.3682L85.6865 18.5602C85.5585 18.8562 85.3625 19.1242 85.0985 19.3642C84.8345 19.6042 84.5225 19.7922 84.1625 19.9282C83.8105 20.0562 83.4305 20.1202 83.0225 20.1202ZM80.7185 16.5802H85.3385C85.3065 16.1242 85.1825 15.7242 84.9665 15.3802C84.7585 15.0362 84.4825 14.7682 84.1385 14.5762C83.8025 14.3762 83.4305 14.2762 83.0225 14.2762C82.6145 14.2762 82.2425 14.3762 81.9065 14.5762C81.5705 14.7682 81.2945 15.0402 81.0785 15.3922C80.8705 15.7362 80.7505 16.1322 80.7185 16.5802ZM96.9055 20.0002H96.0895V16.5082C96.0895 15.7802 95.9735 15.2442 95.7415 14.9002C95.5095 14.5562 95.1655 14.3842 94.7095 14.3842C94.2375 14.3842 93.8135 14.5522 93.4375 14.8882C93.0695 15.2242 92.8095 15.6562 92.6575 16.1842V20.0002H91.8415V16.5082C91.8415 15.7722 91.7295 15.2362 91.5055 14.9002C91.2815 14.5562 90.9375 14.3842 90.4735 14.3842C90.0095 14.3842 89.5895 14.5482 89.2135 14.8762C88.8375 15.2042 88.5735 15.6362 88.4215 16.1722V20.0002H87.6055V13.7482H88.3495V15.1642C88.6135 14.6762 88.9495 14.3002 89.3575 14.0362C89.7735 13.7722 90.2335 13.6402 90.7375 13.6402C91.2575 13.6402 91.6775 13.7882 91.9975 14.0842C92.3175 14.3802 92.5135 14.7682 92.5855 15.2482C92.8735 14.7202 93.2175 14.3202 93.6175 14.0482C94.0255 13.7762 94.4855 13.6402 94.9975 13.6402C95.3495 13.6402 95.6455 13.7042 95.8855 13.8322C96.1335 13.9602 96.3295 14.1442 96.4735 14.3842C96.6255 14.6162 96.7335 14.9002 96.7975 15.2362C96.8695 15.5642 96.9055 15.9322 96.9055 16.3402V20.0002ZM101.573 20.1202C101.125 20.1202 100.709 20.0362 100.325 19.8682C99.9408 19.6922 99.6088 19.4562 99.3288 19.1602C99.0488 18.8562 98.8288 18.5082 98.6688 18.1162C98.5168 17.7242 98.4408 17.3042 98.4408 16.8562C98.4408 16.2722 98.5728 15.7362 98.8368 15.2482C99.1088 14.7602 99.4808 14.3722 99.9528 14.0842C100.425 13.7882 100.961 13.6402 101.561 13.6402C102.177 13.6402 102.713 13.7882 103.169 14.0842C103.633 14.3802 103.997 14.7722 104.261 15.2602C104.525 15.7402 104.657 16.2682 104.657 16.8442C104.657 16.9082 104.657 16.9722 104.657 17.0362C104.657 17.0922 104.653 17.1362 104.645 17.1682H99.2928C99.3328 17.6162 99.4568 18.0162 99.6648 18.3682C99.8808 18.7122 100.157 18.9882 100.493 19.1962C100.837 19.3962 101.209 19.4962 101.609 19.4962C102.017 19.4962 102.401 19.3922 102.761 19.1842C103.129 18.9762 103.385 18.7042 103.529 18.3682L104.237 18.5602C104.109 18.8562 103.913 19.1242 103.649 19.3642C103.385 19.6042 103.073 19.7922 102.713 19.9282C102.361 20.0562 101.981 20.1202 101.573 20.1202ZM99.2688 16.5802H103.889C103.857 16.1242 103.733 15.7242 103.517 15.3802C103.309 15.0362 103.033 14.7682 102.689 14.5762C102.353 14.3762 101.981 14.2762 101.573 14.2762C101.165 14.2762 100.793 14.3762 100.457 14.5762C100.121 14.7682 99.8448 15.0402 99.6288 15.3922C99.4208 15.7362 99.3008 16.1322 99.2688 16.5802ZM111.412 20.0002H110.596V16.5082C110.596 15.7722 110.488 15.2362 110.272 14.9002C110.056 14.5562 109.716 14.3842 109.252 14.3842C108.932 14.3842 108.616 14.4642 108.304 14.6242C107.992 14.7762 107.716 14.9882 107.476 15.2602C107.244 15.5242 107.076 15.8282 106.972 16.1722V20.0002H106.156V13.7482H106.9V15.1642C107.068 14.8602 107.288 14.5962 107.56 14.3722C107.832 14.1402 108.14 13.9602 108.484 13.8322C108.828 13.7042 109.184 13.6402 109.552 13.6402C109.896 13.6402 110.188 13.7042 110.428 13.8322C110.668 13.9602 110.86 14.1442 111.004 14.3842C111.148 14.6162 111.252 14.9002 111.316 15.2362C111.38 15.5642 111.412 15.9322 111.412 16.3402V20.0002ZM116.333 19.7002C116.269 19.7242 116.169 19.7682 116.033 19.8322C115.897 19.8962 115.733 19.9522 115.541 20.0002C115.349 20.0482 115.141 20.0722 114.917 20.0722C114.685 20.0722 114.465 20.0282 114.257 19.9402C114.057 19.8522 113.897 19.7202 113.777 19.5442C113.657 19.3602 113.597 19.1362 113.597 18.8722V14.3962H112.733V13.7482H113.597V11.6362H114.413V13.7482H115.853V14.3962H114.413V18.6442C114.429 18.8682 114.509 19.0362 114.653 19.1482C114.805 19.2602 114.977 19.3162 115.169 19.3162C115.393 19.3162 115.597 19.2802 115.781 19.2082C115.965 19.1282 116.077 19.0722 116.117 19.0402L116.333 19.7002Z" fill="black"/>
</g>
<defs>
<clipPath id="clip0_264_68">
<rect width="125" height="32" fill="white"/>
</clipPath>
</defs>
</svg>
