<svg width="31" height="46" viewBox="0 0 31 46" fill="none" xmlns="http://www.w3.org/2000/svg">
<path d="M7.5 21C6.95 21 6.479 20.804 6.087 20.412C5.695 20.02 5.49934 19.5493 5.5 19V8C5.5 7.45 5.696 6.979 6.088 6.587C6.48 6.195 6.95067 5.99934 7.5 6H11.5V4C11.5 3.45 11.696 2.979 12.088 2.587C12.48 2.195 12.9507 1.99934 13.5 2H17.5C18.05 2 18.521 2.196 18.913 2.588C19.305 2.98 19.5007 3.45067 19.5 4V6H23.5C24.05 6 24.521 6.196 24.913 6.588C25.305 6.98 25.5007 7.45067 25.5 8V19C25.5 19.55 25.304 20.021 24.912 20.413C24.52 20.805 24.0493 21.0007 23.5 21H7.5ZM7.5 19H23.5V8H7.5V19ZM13.5 6H17.5V4H13.5V6Z" fill="#F2F7FC"/>
<path d="M3.98287 31.5162H5.24288L6.29888 34.4082L7.36688 31.5162H8.62687L7.16288 35.3082L8.43487 38.4402L11.0869 31.4802H12.5629L9.07087 40.0002H7.90688L6.31087 36.1842L4.70288 40.0002H3.52688L0.046875 31.4802H1.51087L4.17488 38.4402L5.44688 35.3082L3.98287 31.5162ZM15.3882 40.1202C14.8922 40.1202 14.4482 40.0362 14.0562 39.8682C13.6642 39.6922 13.3242 39.4522 13.0362 39.1482C12.7562 38.8442 12.5402 38.5002 12.3882 38.1162C12.2362 37.7242 12.1602 37.3082 12.1602 36.8682C12.1602 36.4282 12.2362 36.0122 12.3882 35.6202C12.5402 35.2282 12.7562 34.8842 13.0362 34.5882C13.3242 34.2842 13.6642 34.0482 14.0562 33.8802C14.4562 33.7042 14.9002 33.6162 15.3882 33.6162C15.8762 33.6162 16.3162 33.7042 16.7082 33.8802C17.1082 34.0482 17.4482 34.2842 17.7282 34.5882C18.0162 34.8842 18.2362 35.2282 18.3882 35.6202C18.5402 36.0122 18.6162 36.4282 18.6162 36.8682C18.6162 37.3082 18.5402 37.7242 18.3882 38.1162C18.2362 38.5002 18.0162 38.8442 17.7282 39.1482C17.4482 39.4522 17.1082 39.6922 16.7082 39.8682C16.3162 40.0362 15.8762 40.1202 15.3882 40.1202ZM13.5162 36.8802C13.5162 37.2802 13.6002 37.6402 13.7682 37.9602C13.9362 38.2802 14.1602 38.5322 14.4402 38.7162C14.7202 38.9002 15.0362 38.9922 15.3882 38.9922C15.7322 38.9922 16.0442 38.9002 16.3242 38.7162C16.6122 38.5242 16.8402 38.2682 17.0082 37.9482C17.1762 37.6202 17.2602 37.2602 17.2602 36.8682C17.2602 36.4682 17.1762 36.1082 17.0082 35.7882C16.8402 35.4682 16.6122 35.2162 16.3242 35.0322C16.0442 34.8402 15.7322 34.7442 15.3882 34.7442C15.0362 34.7442 14.7202 34.8402 14.4402 35.0322C14.1602 35.2242 13.9362 35.4802 13.7682 35.8002C13.6002 36.1122 13.5162 36.4722 13.5162 36.8802ZM23.315 34.8642C22.803 34.8722 22.347 34.9882 21.947 35.2122C21.555 35.4362 21.275 35.7522 21.107 36.1602V40.0002H19.787V33.7242H21.011V35.1282C21.227 34.6962 21.511 34.3522 21.863 34.0962C22.215 33.8322 22.587 33.6882 22.979 33.6642C23.059 33.6642 23.123 33.6642 23.171 33.6642C23.227 33.6642 23.275 33.6682 23.315 33.6762V34.8642ZM28.6433 40.0002L26.6273 37.1082L25.5953 38.0922V40.0002H24.2753V31.2402H25.5953V36.7602L28.4993 33.7362H29.9153L27.4793 36.3642L30.0473 40.0002H28.6433Z" fill="#F2F7FC"/>
</svg>
